<svg width="60" height="60" viewBox="0 0 60 60" fill="none" xmlns="http://www.w3.org/2000/svg">
<path d="M48.8571 60H39.1428V53.7143H48.8571C50.1453 53.7143 51.3807 53.2025 52.2916 52.2916C53.2025 51.3807 53.7143 50.1453 53.7143 48.8571V39.1428H60V48.8571C59.9966 51.8113 58.8215 54.6436 56.7325 56.7325C54.6436 58.8215 51.8113 59.9966 48.8571 60Z" fill="#6C63FF"/>
<path d="M59.8571 20.8571H53.5714V11.1429C53.5714 9.85466 53.0597 8.61923 52.1488 7.70834C51.2379 6.79745 50.0025 6.28571 48.7143 6.28571H39V0H48.7143C51.6685 0.00340284 54.5008 1.17847 56.5897 3.26743C58.6787 5.35638 59.8537 8.18863 59.8571 11.1429V20.8571Z" fill="#6C63FF"/>
<path d="M20.8571 60H11.1429C8.18863 59.9966 5.35638 58.8215 3.26743 56.7325C1.17847 54.6436 0.00340284 51.8113 0 48.8571V39.1428H6.28571V48.8571C6.28571 50.1453 6.79745 51.3807 7.70834 52.2916C8.61923 53.2025 9.85466 53.7143 11.1429 53.7143H20.8571V60Z" fill="#6C63FF"/>
<path d="M6.28571 20.8571H0V11.1429C0.00340284 8.18863 1.17847 5.35638 3.26743 3.26743C5.35638 1.17847 8.18863 0.00340284 11.1429 0H20.8571V6.28571H11.1429C9.85466 6.28571 8.61923 6.79745 7.70834 7.70834C6.79745 8.61923 6.28571 9.85466 6.28571 11.1429V20.8571Z" fill="#6C63FF"/>
<path d="M10 14.2857C10 11.9196 11.9196 10 14.2857 10H22.8571C25.2232 10 27.1429 11.9196 27.1429 14.2857V22.8571C27.1429 25.2232 25.2232 27.1429 22.8571 27.1429H14.2857C11.9196 27.1429 10 25.2232 10 22.8571V14.2857ZM15.7143 15.7143V21.4286H21.4286V15.7143H15.7143ZM10 37.1429C10 34.7768 11.9196 32.8571 14.2857 32.8571H22.8571C25.2232 32.8571 27.1429 34.7768 27.1429 37.1429V45.7143C27.1429 48.0804 25.2232 50 22.8571 50H14.2857C11.9196 50 10 48.0804 10 45.7143V37.1429ZM15.7143 38.5714V44.2857H21.4286V38.5714H15.7143ZM37.1429 10H45.7143C48.0804 10 50 11.9196 50 14.2857V22.8571C50 25.2232 48.0804 27.1429 45.7143 27.1429H37.1429C34.7768 27.1429 32.8571 25.2232 32.8571 22.8571V14.2857C32.8571 11.9196 34.7768 10 37.1429 10ZM44.2857 15.7143H38.5714V21.4286H44.2857V15.7143ZM32.8571 34.2857C32.8571 33.5 33.5 32.8571 34.2857 32.8571H40C40.7857 32.8571 41.4286 33.5 41.4286 34.2857C41.4286 35.0714 42.0714 35.7143 42.8571 35.7143H45.7143C46.5 35.7143 47.1429 35.0714 47.1429 34.2857C47.1429 33.5 47.7857 32.8571 48.5714 32.8571C49.3571 32.8571 50 33.5 50 34.2857V42.8571C50 43.6429 49.3571 44.2857 48.5714 44.2857H42.8571C42.0714 44.2857 41.4286 43.6429 41.4286 42.8571C41.4286 42.0714 40.7857 41.4286 40 41.4286C39.2143 41.4286 38.5714 42.0714 38.5714 42.8571V48.5714C38.5714 49.3571 37.9286 50 37.1429 50H34.2857C33.5 50 32.8571 49.3571 32.8571 48.5714V34.2857ZM42.8571 50C42.4783 50 42.1149 49.8495 41.847 49.5816C41.5791 49.3137 41.4286 48.9503 41.4286 48.5714C41.4286 48.1926 41.5791 47.8292 41.847 47.5613C42.1149 47.2934 42.4783 47.1429 42.8571 47.1429C43.236 47.1429 43.5994 47.2934 43.8673 47.5613C44.1352 47.8292 44.2857 48.1926 44.2857 48.5714C44.2857 48.9503 44.1352 49.3137 43.8673 49.5816C43.5994 49.8495 43.236 50 42.8571 50ZM48.5714 50C48.1926 50 47.8292 49.8495 47.5613 49.5816C47.2934 49.3137 47.1429 48.9503 47.1429 48.5714C47.1429 48.1926 47.2934 47.8292 47.5613 47.5613C47.8292 47.2934 48.1926 47.1429 48.5714 47.1429C48.9503 47.1429 49.3137 47.2934 49.5816 47.5613C49.8495 47.8292 50 48.1926 50 48.5714C50 48.9503 49.8495 49.3137 49.5816 49.5816C49.3137 49.8495 48.9503 50 48.5714 50Z" fill="#30303F"/>
</svg>
