<svg width="193" height="400" viewBox="0 0 193 400" fill="none" xmlns="http://www.w3.org/2000/svg">
<g clip-path="url(#clip0_140_22)">
<path d="M162.03 400H30.9703C13.8933 400 0 386.109 0 369.034V30.9658C0 13.8911 13.8933 0 30.9703 0H162.03C179.107 0 193 13.8911 193 30.9658V369.034C193 386.109 179.107 400 162.03 400Z" fill="#2F2E41"/>
<path d="M162.163 391.643H30.8367C18.0231 391.643 7.59842 381.22 7.59842 368.408V29.6927C7.59842 16.8811 18.0231 6.45773 30.8367 6.45773H162.163C174.977 6.45773 185.402 16.8811 185.402 29.6927V368.408C185.402 381.22 174.977 391.643 162.163 391.643Z" fill="white"/>
<path d="M117.016 28.4901H75.2244C70.4062 28.4901 66.4862 24.5708 66.4862 19.7531C66.4862 14.9354 70.4062 11.0162 75.2244 11.0162H117.016C121.834 11.0162 125.754 14.9354 125.754 19.7531C125.754 24.5708 121.834 28.4901 117.016 28.4901Z" fill="#2F2E41"/>
<path d="M90.5733 246.44C90.6553 246.557 90.6827 246.674 90.6514 246.799C90.628 246.917 90.5655 247.014 90.4639 247.096C87.9522 248.889 85.667 250.581 83.6045 252.174C83.8116 252.839 83.8389 253.569 83.6827 254.362C83.421 255.737 82.9522 257.018 82.2764 258.206C81.6085 259.393 80.8272 260.471 79.9327 261.44C79.0342 262.417 78.0967 263.257 77.1202 263.956C76.1514 264.663 75.2178 265.214 74.3233 265.612C73.4366 266.007 72.671 266.229 72.0264 266.284C71.9327 266.292 71.8428 266.299 71.7608 266.299C71.2608 266.299 70.9053 266.194 70.6983 265.987C70.4874 265.788 70.3467 265.6 70.2764 265.424C69.9092 264.413 70.7803 262.741 72.8858 260.409C74.9874 258.073 78.1827 255.237 82.4639 251.893C81.9327 250.936 80.8624 250.057 79.2608 249.253C77.6553 248.44 75.5264 247.503 72.8702 246.44C72.5655 246.315 72.253 246.19 71.9327 246.065C71.6085 245.932 71.2764 245.792 70.9327 245.643C69.7764 245.155 68.9678 244.499 68.5108 243.674C68.0616 242.854 68.003 241.909 68.3389 240.846C68.5967 240.026 69.0499 239.186 69.6983 238.331C70.3428 237.479 71.1241 236.628 72.042 235.784C72.9678 234.932 73.9717 234.124 75.0577 233.362C76.1397 232.592 77.2452 231.893 78.3702 231.268C79.503 230.635 80.6085 230.096 81.6827 229.659C82.7647 229.221 83.7647 228.917 84.6827 228.737C85.5967 228.561 86.3702 228.546 86.9952 228.69C87.253 228.753 87.542 228.874 87.8545 229.049C88.167 229.229 88.417 229.514 88.6045 229.909C88.792 230.307 88.8428 230.854 88.7608 231.549C88.7295 231.674 88.6592 231.776 88.5577 231.846C88.4639 231.921 88.3545 231.952 88.2295 231.94C88.1045 231.921 87.9991 231.858 87.917 231.753C87.8311 231.651 87.7999 231.53 87.8233 231.393C87.917 230.717 87.8389 230.268 87.5889 230.049C87.3467 229.823 87.0889 229.674 86.8077 229.612C86.1905 229.467 85.378 229.514 84.3702 229.753C83.3585 229.995 82.2295 230.401 80.9795 230.971C79.7374 231.546 78.4678 232.253 77.167 233.096C75.7686 233.971 74.5186 234.885 73.417 235.831C72.3116 236.768 71.4014 237.69 70.6827 238.596C69.9639 239.503 69.4835 240.342 69.2452 241.112C68.7139 242.78 69.4014 244.01 71.3077 244.799C71.6397 244.924 71.9639 245.057 72.2764 245.19C72.5967 245.315 72.921 245.44 73.2452 245.565C74.8702 246.233 76.3467 246.862 77.6827 247.456C79.0147 248.042 80.1514 248.639 81.0889 249.253C82.0342 249.87 82.7452 250.557 83.2139 251.315C85.2452 249.733 87.4835 248.077 89.9327 246.346C90.0342 246.264 90.1514 246.237 90.2764 246.268C90.4014 246.292 90.4991 246.346 90.5733 246.44ZM82.7764 254.174C82.878 253.682 82.8897 253.229 82.8077 252.815C79.3702 255.51 76.6397 257.882 74.6202 259.924C73.4405 261.143 72.5342 262.221 71.9014 263.159C71.2764 264.104 71.0264 264.757 71.1514 265.112C71.2022 265.245 71.3155 265.323 71.4952 265.346C71.671 265.366 71.8233 265.37 71.9483 265.362C72.4874 265.331 73.1592 265.128 73.9639 264.753C74.7764 264.378 75.628 263.862 76.5264 263.206C77.4327 262.557 78.3116 261.784 79.167 260.878C80.0186 259.971 80.7686 258.948 81.417 257.815C82.0616 256.69 82.5147 255.475 82.7764 254.174Z" fill="#323232"/>
<path d="M99.7736 246.612C99.8868 246.667 99.965 246.753 100.008 246.878C100.047 246.995 100.043 247.108 99.9923 247.221C99.6876 247.846 99.3556 248.479 98.9923 249.112C98.6251 249.737 98.2462 250.315 97.8517 250.846C97.4532 251.37 97.047 251.784 96.6329 252.096C96.215 252.409 95.7931 252.565 95.3673 252.565C95.2931 252.565 95.2032 252.557 95.1017 252.549C94.0157 252.339 93.3517 250.889 93.1017 248.19C92.8204 248.557 92.4962 248.971 92.1329 249.44C91.7775 249.901 91.3986 250.354 90.9923 250.799C90.9298 250.862 90.8243 250.967 90.6798 251.112C90.5314 251.249 90.3595 251.358 90.1642 251.44C89.9767 251.514 89.7814 251.503 89.586 251.409C89.2032 251.264 89.0157 250.842 89.0235 250.143C89.0235 249.737 89.1017 249.237 89.2579 248.643C89.4142 248.049 89.6329 247.452 89.9142 246.846C90.1954 246.233 90.5235 245.698 90.8986 245.237C91.2814 244.768 91.7111 244.452 92.1798 244.284C92.4689 244.171 92.8243 244.151 93.2423 244.221C93.6564 244.296 94.0939 244.596 94.5548 245.128C94.6251 245.233 94.6564 245.346 94.6486 245.471C94.6486 245.596 94.6017 245.702 94.5079 245.784C94.4025 245.87 94.2814 245.905 94.1486 245.893C94.0236 245.885 93.922 245.831 93.8517 245.737C93.465 245.292 93.1251 245.077 92.8361 245.096C92.5548 245.12 92.3204 245.202 92.1329 245.346C91.7775 245.608 91.4532 245.983 91.1642 246.471C90.8712 246.952 90.6251 247.456 90.4298 247.987C90.2423 248.518 90.1056 249.018 90.0235 249.487C89.9376 249.948 89.9142 250.28 89.9454 250.487C89.9962 250.456 90.047 250.417 90.1017 250.362C90.1642 250.311 90.2267 250.249 90.2892 250.174C90.7657 249.643 91.2111 249.12 91.6173 248.596C92.0236 248.065 92.3712 247.596 92.6642 247.19C92.7462 247.077 92.8204 246.967 92.8829 246.862C92.9532 246.76 93.0275 246.667 93.1017 246.581C93.2267 246.424 93.3907 246.378 93.6017 246.44C93.8087 246.495 93.922 246.628 93.9454 246.846C93.9962 247.901 94.0782 248.749 94.1954 249.393C94.3204 250.03 94.4532 250.503 94.6017 250.815C94.7462 251.128 94.8829 251.342 95.0079 251.456C95.1407 251.573 95.2423 251.628 95.3048 251.628C95.6056 251.69 96.0939 251.378 96.7736 250.69C97.4493 249.995 98.2423 248.706 99.1486 246.831C99.2111 246.698 99.3048 246.612 99.4298 246.581C99.5548 246.542 99.6681 246.549 99.7736 246.612Z" fill="#323232"/>
<path d="M108.298 246.753C108.4 246.815 108.47 246.917 108.501 247.049C108.532 247.174 108.517 247.284 108.454 247.378C108.318 247.596 108.111 247.924 107.829 248.362C107.548 248.792 107.208 249.268 106.814 249.799C106.415 250.323 105.993 250.831 105.548 251.331C105.111 251.823 104.673 252.225 104.236 252.549C103.798 252.87 103.396 253.034 103.032 253.034C102.896 253.034 102.782 253.006 102.689 252.956C102.282 252.807 102.025 252.44 101.923 251.846C101.818 251.245 101.853 250.378 102.032 249.253C101.821 249.526 101.595 249.807 101.345 250.096C101.103 250.389 100.849 250.655 100.579 250.893C100.161 251.249 99.8058 251.393 99.5167 251.331C99.2238 251.268 99.0324 251.19 98.9386 251.096C98.6457 250.846 98.466 250.479 98.3917 249.987C98.3214 249.499 98.3449 248.952 98.4699 248.346C98.5871 247.745 98.8019 247.155 99.1261 246.581C99.1886 246.467 99.2824 246.393 99.4074 246.362C99.5402 246.331 99.6652 246.346 99.7824 246.409C99.8957 246.483 99.9699 246.581 100.001 246.706C100.032 246.823 100.017 246.936 99.9542 247.049C99.6613 247.53 99.4621 248.01 99.3605 248.487C99.2667 248.967 99.2394 249.378 99.2824 249.721C99.3214 250.057 99.3996 250.268 99.5167 250.362C99.5792 250.417 99.6613 250.405 99.7667 250.331C99.8683 250.26 99.9386 250.214 99.9699 250.19C100.282 249.921 100.571 249.608 100.845 249.253C101.114 248.901 101.349 248.577 101.548 248.284C101.806 247.932 102.021 247.671 102.189 247.503C102.353 247.327 102.552 247.284 102.782 247.378C103.009 247.464 103.126 247.643 103.126 247.924C103.126 248.198 103.083 248.565 103.001 249.034C102.845 249.971 102.771 250.655 102.782 251.081C102.802 251.51 102.845 251.784 102.907 251.909C102.97 252.022 103.009 252.081 103.032 252.081C103.22 252.163 103.751 251.784 104.626 250.94C105.501 250.089 106.509 248.737 107.657 246.893C107.72 246.792 107.814 246.729 107.939 246.706C108.071 246.674 108.193 246.69 108.298 246.753Z" fill="#323232"/>
<path d="M114.437 229.299C114.644 229.604 114.644 230.221 114.437 231.159C114.237 232.096 113.819 233.26 113.187 234.643C112.562 236.018 111.722 237.546 110.671 239.221C110.659 239.245 110.644 239.26 110.624 239.268C110.206 240.987 109.788 242.737 109.374 244.518C108.968 246.292 108.577 248.03 108.202 249.737C107.835 251.448 107.503 253.053 107.202 254.565C106.89 256.073 106.624 257.417 106.405 258.596C106.187 259.772 106.03 260.721 105.937 261.44C105.948 261.44 105.964 261.44 105.983 261.44C106.108 261.479 106.202 261.557 106.265 261.674C106.319 261.788 106.319 261.909 106.265 262.034C106.151 262.346 106.038 262.628 105.921 262.878C105.796 263.128 105.632 263.253 105.421 263.253C105.37 263.253 105.312 263.241 105.249 263.221C105.105 263.178 104.999 263.081 104.937 262.924C104.874 262.768 104.87 262.46 104.921 262.003C104.964 261.542 105.069 260.835 105.233 259.878C105.526 258.135 105.96 255.862 106.53 253.049C106.96 251.081 107.397 249.077 107.858 247.034C108.315 244.995 108.769 243.026 109.218 241.128C109.675 239.233 110.112 237.51 110.53 235.956C110.612 235.643 110.733 235.217 110.89 234.674C111.054 234.124 111.241 233.534 111.452 232.909C111.659 232.276 111.894 231.671 112.155 231.096C112.413 230.514 112.679 230.034 112.952 229.659C113.233 229.276 113.507 229.057 113.78 229.003C114.05 228.952 114.269 229.049 114.437 229.299ZM111.483 236.034C112.253 234.577 112.796 233.362 113.108 232.393C113.421 231.424 113.601 230.721 113.655 230.284C113.425 230.608 113.116 231.217 112.733 232.112C112.347 233.01 111.929 234.315 111.483 236.034Z" fill="#323232"/>
<path d="M118.118 229.299C118.325 229.604 118.325 230.221 118.118 231.159C117.918 232.096 117.5 233.26 116.868 234.643C116.243 236.018 115.403 237.546 114.352 239.221C114.34 239.245 114.325 239.26 114.305 239.268C113.887 240.987 113.469 242.737 113.055 244.518C112.649 246.292 112.258 248.03 111.883 249.737C111.516 251.448 111.184 253.053 110.883 254.565C110.571 256.073 110.305 257.417 110.086 258.596C109.868 259.772 109.711 260.721 109.618 261.44C109.629 261.44 109.645 261.44 109.664 261.44C109.789 261.479 109.883 261.557 109.946 261.674C110 261.788 110 261.909 109.946 262.034C109.832 262.346 109.719 262.628 109.602 262.878C109.477 263.128 109.313 263.253 109.102 263.253C109.051 263.253 108.993 263.241 108.93 263.221C108.786 263.178 108.68 263.081 108.618 262.924C108.555 262.768 108.551 262.46 108.602 262.003C108.645 261.542 108.75 260.835 108.914 259.878C109.207 258.135 109.641 255.862 110.211 253.049C110.641 251.081 111.079 249.077 111.539 247.034C111.996 244.995 112.45 243.026 112.899 241.128C113.356 239.233 113.793 237.51 114.211 235.956C114.293 235.643 114.414 235.217 114.571 234.674C114.735 234.124 114.922 233.534 115.133 232.909C115.34 232.276 115.575 231.671 115.836 231.096C116.094 230.514 116.36 230.034 116.633 229.659C116.914 229.276 117.188 229.057 117.461 229.003C117.731 228.952 117.95 229.049 118.118 229.299ZM115.164 236.034C115.934 234.577 116.477 233.362 116.789 232.393C117.102 231.424 117.282 230.721 117.336 230.284C117.106 230.608 116.797 231.217 116.414 232.112C116.028 233.01 115.61 234.315 115.164 236.034Z" fill="#323232"/>
<path d="M123.439 246.706C123.552 246.792 123.615 246.901 123.627 247.034C123.646 247.159 123.615 247.268 123.533 247.362C123.115 247.893 122.627 248.374 122.064 248.799C121.51 249.217 120.931 249.526 120.33 249.721C119.724 249.921 119.142 249.956 118.58 249.831C118.349 250.393 118.025 250.831 117.611 251.143C117.205 251.448 116.791 251.596 116.377 251.596C116.377 251.596 116.369 251.596 116.361 251.596C116.349 251.596 116.345 251.596 116.345 251.596C115.908 251.589 115.521 251.44 115.189 251.159C114.865 250.87 114.638 250.471 114.502 249.971C114.357 249.409 114.338 248.874 114.439 248.362C114.533 247.854 114.705 247.405 114.955 247.018C115.213 246.635 115.506 246.339 115.83 246.128C115.943 246.046 116.072 246.03 116.22 246.081C116.365 245.729 116.568 245.452 116.83 245.253C117.099 245.057 117.381 244.983 117.674 245.034C117.849 245.065 118.041 245.174 118.252 245.362C118.47 245.549 118.642 245.885 118.767 246.362C118.892 246.831 118.931 247.53 118.892 248.456C118.869 248.612 118.845 248.776 118.814 248.94C119.252 249.014 119.709 248.964 120.189 248.784C120.677 248.608 121.146 248.342 121.595 247.987C122.052 247.624 122.447 247.221 122.783 246.784C122.865 246.682 122.97 246.624 123.095 246.612C123.228 246.592 123.345 246.624 123.439 246.706ZM116.377 250.659C116.584 250.659 116.814 250.565 117.064 250.378C117.322 250.182 117.537 249.885 117.705 249.487C117.119 249.167 116.705 248.796 116.455 248.378C116.205 247.964 116.068 247.542 116.049 247.112C115.713 247.436 115.494 247.854 115.392 248.362C115.287 248.862 115.291 249.311 115.408 249.706C115.447 249.885 115.541 250.089 115.689 250.315C115.834 250.546 116.064 250.659 116.377 250.659ZM117.939 248.409C117.97 247.764 117.959 247.264 117.908 246.909C117.853 246.546 117.787 246.299 117.705 246.174C117.619 246.049 117.564 245.979 117.533 245.956C117.51 245.956 117.502 245.956 117.502 245.956C117.459 245.956 117.385 246.01 117.283 246.112C117.189 246.206 117.111 246.346 117.049 246.534C116.955 246.846 116.959 247.186 117.064 247.549C117.177 247.905 117.47 248.237 117.939 248.549C117.939 248.499 117.939 248.452 117.939 248.409Z" fill="#323232"/>
<path d="M77.2717 237.185H76.7249V238.607H77.2874C77.5452 238.607 77.76 238.556 77.928 238.451C78.1038 238.349 78.1936 238.169 78.1936 237.919C78.1936 237.661 78.1077 237.474 77.9436 237.357C77.7874 237.243 77.5608 237.185 77.2717 237.185ZM78.5374 241.107L77.553 239.326C77.4983 239.326 77.4475 239.333 77.3967 239.341C77.342 239.341 77.2874 239.341 77.2249 239.341H76.7249V241.107H75.8342V236.435H77.2874C77.7952 236.435 78.2288 236.556 78.5842 236.794C78.9475 237.025 79.1311 237.384 79.1311 237.872C79.1311 238.165 79.0569 238.415 78.9124 238.622C78.7639 238.833 78.5764 238.993 78.3499 239.107L79.4905 241.107H78.5374Z" fill="#323232"/>
<path d="M81.6615 241.185C81.1302 241.185 80.7123 241.029 80.4115 240.716C80.1185 240.396 79.974 239.966 79.974 239.435C79.974 238.904 80.1302 238.482 80.4427 238.169C80.7552 237.849 81.1771 237.685 81.7084 237.685C82.2592 237.685 82.6849 237.853 82.9896 238.185C83.3021 238.509 83.4584 238.935 83.4584 239.466C83.4584 239.997 83.2904 240.419 82.9584 240.732C82.6224 241.036 82.1927 241.185 81.6615 241.185ZM82.5365 239.466C82.5365 239.154 82.4623 238.911 82.3177 238.732C82.181 238.544 81.9818 238.451 81.724 238.451C81.4623 238.451 81.2592 238.536 81.1146 238.701C80.9662 238.857 80.8959 239.099 80.8959 239.419C80.8959 239.755 80.9584 240.009 81.0834 240.185C81.2084 240.353 81.3998 240.435 81.6615 240.435C81.9193 240.435 82.1302 240.357 82.2865 240.2C82.4506 240.044 82.5365 239.802 82.5365 239.466Z" fill="#323232"/>
<path d="M85.9069 238.404C85.6022 238.404 85.3913 238.521 85.2663 238.747C85.1413 238.966 85.0788 239.193 85.0788 239.419C85.0788 239.681 85.1296 239.915 85.235 240.122C85.3483 240.333 85.571 240.435 85.9069 240.435C86.0085 240.435 86.1179 240.411 86.235 240.357C86.36 240.306 86.4733 240.247 86.5788 240.185V238.654C86.4733 238.583 86.36 238.525 86.235 238.482C86.1179 238.431 86.0085 238.404 85.9069 238.404ZM87.4694 236.263V241.107H87.0007L86.7507 240.779C86.6022 240.915 86.4265 241.021 86.2194 241.091C86.0202 241.154 85.8366 241.185 85.6725 241.185C85.1804 241.185 84.8054 241.021 84.5475 240.685C84.2858 240.341 84.1569 239.919 84.1569 239.419C84.1569 238.919 84.2975 238.505 84.5788 238.169C84.86 237.826 85.239 237.654 85.7194 237.654C85.8444 237.654 85.9772 237.677 86.1257 237.716C86.2819 237.759 86.4304 237.822 86.5788 237.904V236.341L87.4694 236.263Z" fill="#323232"/>
<path d="M90.3223 237.779L90.4942 238.497C90.3458 238.497 90.1739 238.54 89.9786 238.622C89.7794 238.708 89.5801 238.837 89.3848 239.013V241.107H88.4942V237.779H88.963L89.2598 238.263C89.3926 238.15 89.5606 238.04 89.7598 237.935C89.9551 237.833 90.1426 237.779 90.3223 237.779Z" fill="#323232"/>
<path d="M91.5394 236.31C91.6722 236.31 91.7894 236.357 91.8831 236.451C91.9847 236.544 92.0394 236.665 92.0394 236.81C92.0394 236.947 91.9847 237.068 91.8831 237.169C91.7894 237.263 91.6722 237.31 91.5394 237.31C91.4026 237.31 91.2816 237.263 91.18 237.169C91.0862 237.068 91.0394 236.947 91.0394 236.81C91.0394 236.665 91.0862 236.544 91.18 236.451C91.2816 236.357 91.4026 236.31 91.5394 236.31ZM91.9769 237.779V241.107H91.0862V237.779H91.9769Z" fill="#323232"/>
<path d="M94.5882 238.404C94.2835 238.404 94.0726 238.521 93.9476 238.747C93.8226 238.966 93.7601 239.193 93.7601 239.419C93.7601 239.681 93.8109 239.915 93.9163 240.122C94.0296 240.333 94.2523 240.435 94.5882 240.435C94.6898 240.435 94.7991 240.411 94.9163 240.357C95.0413 240.306 95.1546 240.247 95.2601 240.185V238.654C95.1546 238.583 95.0413 238.525 94.9163 238.482C94.7991 238.431 94.6898 238.404 94.5882 238.404ZM96.1507 237.779V241.107C96.1507 241.501 96.014 241.833 95.7444 242.107C95.471 242.376 95.0413 242.513 94.4476 242.513C94.3109 242.513 94.1077 242.482 93.8382 242.419C93.5648 242.357 93.3421 242.263 93.1663 242.138L93.4319 241.513C93.639 241.615 93.8148 241.689 93.9632 241.732C94.1077 241.771 94.264 241.794 94.4319 241.794C94.6898 241.794 94.8929 241.732 95.0413 241.607C95.1859 241.482 95.2601 241.31 95.2601 241.091V240.919C95.1116 241.005 94.9554 241.068 94.7913 241.107C94.6351 241.158 94.4866 241.185 94.3538 241.185C93.8616 241.185 93.4866 241.021 93.2288 240.685C92.9671 240.341 92.8382 239.919 92.8382 239.419C92.8382 238.919 92.9788 238.505 93.2601 238.169C93.5413 237.826 93.9202 237.654 94.4007 237.654C94.5569 237.654 94.7366 237.693 94.9476 237.763C95.1546 237.826 95.3304 237.927 95.4788 238.06L95.6819 237.779H96.1507Z" fill="#323232"/>
<path d="M99.5505 240.779C99.3942 240.927 99.2067 241.04 98.988 241.122C98.7692 241.204 98.57 241.247 98.3942 241.247C97.9333 241.247 97.613 241.111 97.4255 240.841C97.238 240.572 97.1442 240.247 97.1442 239.872V237.779H98.0505V239.826C98.0505 240.044 98.0974 240.212 98.1911 240.326C98.2927 240.431 98.4411 240.482 98.6286 240.482C98.7536 240.482 98.8786 240.458 99.0036 240.404C99.1364 240.341 99.2614 240.271 99.3786 240.185V237.779H100.269V241.107H99.8005L99.5505 240.779Z" fill="#323232"/>
<path d="M102.974 241.185C102.4 241.185 101.947 241.029 101.615 240.716C101.279 240.404 101.115 239.982 101.115 239.45C101.115 238.919 101.263 238.493 101.568 238.169C101.869 237.849 102.279 237.685 102.802 237.685C103.322 237.685 103.701 237.865 103.943 238.216C104.193 238.56 104.318 238.966 104.318 239.435V239.7H102.068C102.107 239.931 102.209 240.115 102.365 240.247C102.529 240.372 102.744 240.435 103.006 240.435C103.15 240.435 103.279 240.415 103.396 240.372C103.521 240.333 103.666 240.275 103.834 240.2L104.099 240.841C103.943 240.966 103.748 241.056 103.521 241.107C103.302 241.158 103.119 241.185 102.974 241.185ZM103.474 239.107C103.42 238.888 103.334 238.728 103.209 238.622C103.091 238.509 102.947 238.451 102.771 238.451C102.591 238.451 102.443 238.509 102.318 238.622C102.193 238.74 102.107 238.9 102.068 239.107H103.474Z" fill="#323232"/>
<path d="M107.083 238.685C106.927 238.615 106.778 238.556 106.646 238.513C106.509 238.474 106.364 238.451 106.208 238.451C106.091 238.451 106.005 238.474 105.942 238.513C105.88 238.556 105.849 238.618 105.849 238.701C105.849 238.755 105.884 238.806 105.958 238.857C106.028 238.911 106.153 238.966 106.333 239.029C106.603 239.122 106.856 239.263 107.099 239.45C107.337 239.63 107.458 239.865 107.458 240.154C107.458 240.478 107.337 240.732 107.099 240.919C106.868 241.099 106.524 241.185 106.067 241.185C105.931 241.185 105.743 241.158 105.505 241.107C105.274 241.056 105.083 240.966 104.927 240.841L105.192 240.2C105.349 240.275 105.497 240.333 105.646 240.372C105.802 240.415 105.935 240.435 106.052 240.435C106.216 240.435 106.341 240.415 106.427 240.372C106.521 240.322 106.567 240.259 106.567 240.185C106.567 240.091 106.521 240.009 106.427 239.935C106.341 239.865 106.208 239.794 106.021 239.732C105.759 239.65 105.509 239.529 105.271 239.372C105.04 239.208 104.927 238.982 104.927 238.701C104.927 238.388 105.04 238.146 105.271 237.966C105.497 237.779 105.817 237.685 106.224 237.685C106.356 237.685 106.536 237.716 106.755 237.779C106.981 237.841 107.181 237.931 107.349 238.044L107.083 238.685Z" fill="#323232"/>
<path d="M59.528 206.636C60.44 206.636 61.228 206.808 61.892 207.152C62.564 207.488 63.076 207.972 63.428 208.604C63.788 209.236 63.968 209.98 63.968 210.836C63.968 211.692 63.788 212.436 63.428 213.068C63.076 213.692 62.564 214.172 61.892 214.508C61.228 214.836 60.44 215 59.528 215H56.924V206.636H59.528ZM59.528 214.1C60.608 214.1 61.432 213.816 62 213.248C62.568 212.672 62.852 211.868 62.852 210.836C62.852 209.796 62.564 208.984 61.988 208.4C61.42 207.816 60.6 207.524 59.528 207.524H58.016V214.1H59.528ZM71.4084 211.46C71.4084 211.668 71.3964 211.888 71.3724 212.12H66.1164C66.1564 212.768 66.3764 213.276 66.7764 213.644C67.1844 214.004 67.6764 214.184 68.2524 214.184C68.7244 214.184 69.1164 214.076 69.4284 213.86C69.7484 213.636 69.9724 213.34 70.1004 212.972H71.2764C71.1004 213.604 70.7484 214.12 70.2204 214.52C69.6924 214.912 69.0364 215.108 68.2524 215.108C67.6284 215.108 67.0684 214.968 66.5724 214.688C66.0844 214.408 65.7004 214.012 65.4204 213.5C65.1404 212.98 65.0004 212.38 65.0004 211.7C65.0004 211.02 65.1364 210.424 65.4084 209.912C65.6804 209.4 66.0604 209.008 66.5484 208.736C67.0444 208.456 67.6124 208.316 68.2524 208.316C68.8764 208.316 69.4284 208.452 69.9084 208.724C70.3884 208.996 70.7564 209.372 71.0124 209.852C71.2764 210.324 71.4084 210.86 71.4084 211.46ZM70.2804 211.232C70.2804 210.816 70.1884 210.46 70.0044 210.164C69.8204 209.86 69.5684 209.632 69.2484 209.48C68.9364 209.32 68.5884 209.24 68.2044 209.24C67.6524 209.24 67.1804 209.416 66.7884 209.768C66.4044 210.12 66.1844 210.608 66.1284 211.232H70.2804ZM75.2978 213.992L77.3378 208.424H78.5018L75.9218 215H74.6498L72.0698 208.424H73.2458L75.2978 213.992ZM85.5763 211.46C85.5763 211.668 85.5643 211.888 85.5403 212.12H80.2843C80.3243 212.768 80.5443 213.276 80.9443 213.644C81.3523 214.004 81.8443 214.184 82.4203 214.184C82.8923 214.184 83.2843 214.076 83.5963 213.86C83.9163 213.636 84.1403 213.34 84.2683 212.972H85.4443C85.2683 213.604 84.9163 214.12 84.3883 214.52C83.8603 214.912 83.2043 215.108 82.4203 215.108C81.7963 215.108 81.2363 214.968 80.7403 214.688C80.2523 214.408 79.8683 214.012 79.5883 213.5C79.3083 212.98 79.1683 212.38 79.1683 211.7C79.1683 211.02 79.3043 210.424 79.5763 209.912C79.8483 209.4 80.2283 209.008 80.7163 208.736C81.2123 208.456 81.7803 208.316 82.4203 208.316C83.0443 208.316 83.5963 208.452 84.0763 208.724C84.5563 208.996 84.9243 209.372 85.1803 209.852C85.4443 210.324 85.5763 210.86 85.5763 211.46ZM84.4483 211.232C84.4483 210.816 84.3563 210.46 84.1723 210.164C83.9883 209.86 83.7363 209.632 83.4163 209.48C83.1043 209.32 82.7563 209.24 82.3723 209.24C81.8203 209.24 81.3483 209.416 80.9563 209.768C80.5723 210.12 80.3523 210.608 80.2963 211.232H84.4483ZM88.1098 206.12V215H87.0178V206.12H88.1098ZM92.8389 215.108C92.2229 215.108 91.6629 214.968 91.1589 214.688C90.6629 214.408 90.2709 214.012 89.9829 213.5C89.7029 212.98 89.5629 212.38 89.5629 211.7C89.5629 211.028 89.7069 210.436 89.9949 209.924C90.2909 209.404 90.6909 209.008 91.1949 208.736C91.6989 208.456 92.2629 208.316 92.8869 208.316C93.5109 208.316 94.0749 208.456 94.5789 208.736C95.0829 209.008 95.4789 209.4 95.7669 209.912C96.0629 210.424 96.2109 211.02 96.2109 211.7C96.2109 212.38 96.0589 212.98 95.7549 213.5C95.4589 214.012 95.0549 214.408 94.5429 214.688C94.0309 214.968 93.4629 215.108 92.8389 215.108ZM92.8389 214.148C93.2309 214.148 93.5989 214.056 93.9429 213.872C94.2869 213.688 94.5629 213.412 94.7709 213.044C94.9869 212.676 95.0949 212.228 95.0949 211.7C95.0949 211.172 94.9909 210.724 94.7829 210.356C94.5749 209.988 94.3029 209.716 93.9669 209.54C93.6309 209.356 93.2669 209.264 92.8749 209.264C92.4749 209.264 92.1069 209.356 91.7709 209.54C91.4429 209.716 91.1789 209.988 90.9789 210.356C90.7789 210.724 90.6789 211.172 90.6789 211.7C90.6789 212.236 90.7749 212.688 90.9669 213.056C91.1669 213.424 91.4309 213.7 91.7589 213.884C92.0869 214.06 92.4469 214.148 92.8389 214.148ZM98.7387 209.636C98.9547 209.26 99.2747 208.948 99.6987 208.7C100.131 208.444 100.631 208.316 101.199 208.316C101.783 208.316 102.311 208.456 102.783 208.736C103.263 209.016 103.639 209.412 103.911 209.924C104.183 210.428 104.319 211.016 104.319 211.688C104.319 212.352 104.183 212.944 103.911 213.464C103.639 213.984 103.263 214.388 102.783 214.676C102.311 214.964 101.783 215.108 101.199 215.108C100.639 215.108 100.143 214.984 99.7107 214.736C99.2867 214.48 98.9627 214.164 98.7387 213.788V218.12H97.6467V208.424H98.7387V209.636ZM103.203 211.688C103.203 211.192 103.103 210.76 102.903 210.392C102.703 210.024 102.431 209.744 102.087 209.552C101.751 209.36 101.379 209.264 100.971 209.264C100.571 209.264 100.199 209.364 99.8547 209.564C99.5187 209.756 99.2467 210.04 99.0387 210.416C98.8387 210.784 98.7387 211.212 98.7387 211.7C98.7387 212.196 98.8387 212.632 99.0387 213.008C99.2467 213.376 99.5187 213.66 99.8547 213.86C100.199 214.052 100.571 214.148 100.971 214.148C101.379 214.148 101.751 214.052 102.087 213.86C102.431 213.66 102.703 213.376 102.903 213.008C103.103 212.632 103.203 212.192 103.203 211.688ZM111.756 211.46C111.756 211.668 111.744 211.888 111.72 212.12H106.464C106.504 212.768 106.724 213.276 107.124 213.644C107.532 214.004 108.024 214.184 108.6 214.184C109.072 214.184 109.464 214.076 109.776 213.86C110.096 213.636 110.32 213.34 110.448 212.972H111.624C111.448 213.604 111.096 214.12 110.568 214.52C110.04 214.912 109.384 215.108 108.6 215.108C107.976 215.108 107.416 214.968 106.92 214.688C106.432 214.408 106.048 214.012 105.768 213.5C105.488 212.98 105.348 212.38 105.348 211.7C105.348 211.02 105.484 210.424 105.756 209.912C106.028 209.4 106.408 209.008 106.896 208.736C107.392 208.456 107.96 208.316 108.6 208.316C109.224 208.316 109.776 208.452 110.256 208.724C110.736 208.996 111.104 209.372 111.36 209.852C111.624 210.324 111.756 210.86 111.756 211.46ZM110.628 211.232C110.628 210.816 110.536 210.46 110.352 210.164C110.168 209.86 109.916 209.632 109.596 209.48C109.284 209.32 108.936 209.24 108.552 209.24C108 209.24 107.528 209.416 107.136 209.768C106.752 210.12 106.532 210.608 106.476 211.232H110.628ZM112.789 211.688C112.789 211.016 112.925 210.428 113.197 209.924C113.469 209.412 113.841 209.016 114.313 208.736C114.793 208.456 115.329 208.316 115.921 208.316C116.433 208.316 116.909 208.436 117.349 208.676C117.789 208.908 118.125 209.216 118.357 209.6V206.12H119.461V215H118.357V213.764C118.141 214.156 117.821 214.48 117.397 214.736C116.973 214.984 116.477 215.108 115.909 215.108C115.325 215.108 114.793 214.964 114.313 214.676C113.841 214.388 113.469 213.984 113.197 213.464C112.925 212.944 112.789 212.352 112.789 211.688ZM118.357 211.7C118.357 211.204 118.257 210.772 118.057 210.404C117.857 210.036 117.585 209.756 117.241 209.564C116.905 209.364 116.533 209.264 116.125 209.264C115.717 209.264 115.345 209.36 115.009 209.552C114.673 209.744 114.405 210.024 114.205 210.392C114.005 210.76 113.905 211.192 113.905 211.688C113.905 212.192 114.005 212.632 114.205 213.008C114.405 213.376 114.673 213.66 115.009 213.86C115.345 214.052 115.717 214.148 116.125 214.148C116.533 214.148 116.905 214.052 117.241 213.86C117.585 213.66 117.857 213.376 118.057 213.008C118.257 212.632 118.357 212.196 118.357 211.7ZM128.694 210.692C128.998 210.74 129.274 210.864 129.522 211.064C129.778 211.264 129.978 211.512 130.122 211.808C130.274 212.104 130.35 212.42 130.35 212.756C130.35 213.18 130.242 213.564 130.026 213.908C129.81 214.244 129.494 214.512 129.078 214.712C128.67 214.904 128.186 215 127.626 215H124.506V206.636H127.506C128.074 206.636 128.558 206.732 128.958 206.924C129.358 207.108 129.658 207.36 129.858 207.68C130.058 208 130.158 208.36 130.158 208.76C130.158 209.256 130.022 209.668 129.75 209.996C129.486 210.316 129.134 210.548 128.694 210.692ZM125.598 210.248H127.434C127.946 210.248 128.342 210.128 128.622 209.888C128.902 209.648 129.042 209.316 129.042 208.892C129.042 208.468 128.902 208.136 128.622 207.896C128.342 207.656 127.938 207.536 127.41 207.536H125.598V210.248ZM127.53 214.1C128.074 214.1 128.498 213.972 128.802 213.716C129.106 213.46 129.258 213.104 129.258 212.648C129.258 212.184 129.098 211.82 128.778 211.556C128.458 211.284 128.03 211.148 127.494 211.148H125.598V214.1H127.53ZM137.529 208.424L133.569 218.096H132.441L133.737 214.928L131.085 208.424H132.297L134.361 213.752L136.401 208.424H137.529Z" fill="#323232"/>
<path d="M115.857 184H106.143V177.714H115.857C117.145 177.714 118.381 177.203 119.292 176.292C120.203 175.381 120.714 174.145 120.714 172.857V163.143H127V172.857C126.997 175.811 125.821 178.644 123.733 180.733C121.644 182.821 118.811 183.997 115.857 184Z" fill="#6C63FF"/>
<path d="M126.857 144.857H120.571V135.143C120.571 133.855 120.06 132.619 119.149 131.708C118.238 130.797 117.002 130.286 115.714 130.286H106V124H115.714C118.669 124.003 121.501 125.178 123.59 127.267C125.679 129.356 126.854 132.189 126.857 135.143V144.857Z" fill="#6C63FF"/>
<path d="M87.8571 184H78.1429C75.1886 183.997 72.3564 182.821 70.2674 180.733C68.1785 178.644 67.0034 175.811 67 172.857V163.143H73.2857V172.857C73.2857 174.145 73.7974 175.381 74.7083 176.292C75.6192 177.203 76.8547 177.714 78.1429 177.714H87.8571V184Z" fill="#6C63FF"/>
<path d="M73.2857 144.857H67V135.143C67.0034 132.189 68.1785 129.356 70.2674 127.267C72.3564 125.178 75.1886 124.003 78.1429 124H87.8571V130.286H78.1429C76.8547 130.286 75.6192 130.797 74.7083 131.708C73.7974 132.619 73.2857 133.855 73.2857 135.143V144.857Z" fill="#6C63FF"/>
<path d="M77 138.286C77 135.92 78.9196 134 81.2857 134H89.8571C92.2232 134 94.1429 135.92 94.1429 138.286V146.857C94.1429 149.223 92.2232 151.143 89.8571 151.143H81.2857C78.9196 151.143 77 149.223 77 146.857V138.286ZM82.7143 139.714V145.429H88.4286V139.714H82.7143ZM77 161.143C77 158.777 78.9196 156.857 81.2857 156.857H89.8571C92.2232 156.857 94.1429 158.777 94.1429 161.143V169.714C94.1429 172.08 92.2232 174 89.8571 174H81.2857C78.9196 174 77 172.08 77 169.714V161.143ZM82.7143 162.571V168.286H88.4286V162.571H82.7143ZM104.143 134H112.714C115.08 134 117 135.92 117 138.286V146.857C117 149.223 115.08 151.143 112.714 151.143H104.143C101.777 151.143 99.8571 149.223 99.8571 146.857V138.286C99.8571 135.92 101.777 134 104.143 134ZM111.286 139.714H105.571V145.429H111.286V139.714ZM99.8571 158.286C99.8571 157.5 100.5 156.857 101.286 156.857H107C107.786 156.857 108.429 157.5 108.429 158.286C108.429 159.071 109.071 159.714 109.857 159.714H112.714C113.5 159.714 114.143 159.071 114.143 158.286C114.143 157.5 114.786 156.857 115.571 156.857C116.357 156.857 117 157.5 117 158.286V166.857C117 167.643 116.357 168.286 115.571 168.286H109.857C109.071 168.286 108.429 167.643 108.429 166.857C108.429 166.071 107.786 165.429 107 165.429C106.214 165.429 105.571 166.071 105.571 166.857V172.571C105.571 173.357 104.929 174 104.143 174H101.286C100.5 174 99.8571 173.357 99.8571 172.571V158.286ZM109.857 174C109.478 174 109.115 173.849 108.847 173.582C108.579 173.314 108.429 172.95 108.429 172.571C108.429 172.193 108.579 171.829 108.847 171.561C109.115 171.293 109.478 171.143 109.857 171.143C110.236 171.143 110.599 171.293 110.867 171.561C111.135 171.829 111.286 172.193 111.286 172.571C111.286 172.95 111.135 173.314 110.867 173.582C110.599 173.849 110.236 174 109.857 174ZM115.571 174C115.193 174 114.829 173.849 114.561 173.582C114.293 173.314 114.143 172.95 114.143 172.571C114.143 172.193 114.293 171.829 114.561 171.561C114.829 171.293 115.193 171.143 115.571 171.143C115.95 171.143 116.314 171.293 116.582 171.561C116.849 171.829 117 172.193 117 172.571C117 172.95 116.849 173.314 116.582 173.582C116.314 173.849 115.95 174 115.571 174Z" fill="#30303F"/>
</g>
<defs>
<clipPath id="clip0_140_22">
<rect width="193" height="400" fill="white"/>
</clipPath>
</defs>
</svg>
