<svg width="500" height="500" viewBox="0 0 500 500" fill="none" xmlns="http://www.w3.org/2000/svg">
<path d="M103.14 142.1C103.14 142.1 107.41 137.53 113.47 137.32C117.7 133.39 125.57 134.06 127.29 136.65C133.5 132.52 140.38 131.19 146.52 138.96C145.68 130.4 136.28 112.59 107.16 127.48C104.53 125.09 103.71 124.31 103.71 124.31C103.71 124.31 102.53 120.88 101.76 120.72C100.99 120.56 101.76 124.51 101.76 124.51C101.01 124.353 100.235 124.353 99.4848 124.509C98.7345 124.666 98.0247 124.976 97.3999 125.42C97.3999 125.42 96.5299 121.5 95.8799 121.94C95.2299 122.38 95.5199 126.02 95.5199 126.02C95.5199 126.02 95.0799 127.02 93.6199 130.3C60.9899 128.3 59.4699 148.3 62.1199 156.53C64.6499 146.96 71.4799 145.43 78.8299 146.74C79.3799 143.68 86.3199 139.92 91.7699 141.84C97.4099 139.61 103.14 142.1 103.14 142.1Z" fill="#E6E6E6"/>
<path d="M146.1 95.3201C148.56 94.3356 151.292 94.2646 153.8 95.1201C157.49 93.8101 162.2 96.3401 162.58 98.4101C167.58 97.5001 172.18 98.5201 173.92 105C175.69 99.4501 174.62 85.8501 152.52 87.3101C151.52 85.1101 151.22 84.4101 151.22 84.4101C151.22 84.4101 151.4 81.9601 150.97 81.6501C150.54 81.3401 150 84.0001 150 84.0001C149.57 83.7136 149.093 83.5069 148.59 83.3901C148.081 83.2938 147.559 83.2938 147.05 83.3901C147.05 83.3901 147.56 80.7101 147.05 80.8201C146.54 80.9301 145.73 83.2601 145.73 83.2601C145.73 83.2601 145.18 83.7801 143.4 85.4101C123.65 75.4101 117.32 87.4801 116.78 93.2801C120.91 88.0101 125.57 88.8901 129.78 91.6701C130.94 89.9201 136.27 89.4401 139.14 92.0901C141.769 92.3086 144.235 93.4532 146.1 95.3201Z" fill="#E6E6E6"/>
<path d="M411.77 164.09C414.229 163.104 416.96 163.03 419.47 163.88C423.15 162.57 427.87 165.1 428.24 167.17C433.24 166.27 437.85 167.29 439.58 173.76C441.36 168.22 440.28 154.62 418.18 156.08C417.18 153.88 416.89 153.18 416.89 153.18C416.89 153.18 417.07 150.72 416.63 150.42C416.19 150.12 415.63 152.78 415.63 152.78C415.199 152.477 414.71 152.267 414.193 152.162C413.677 152.057 413.145 152.06 412.63 152.17C412.63 152.17 413.14 149.5 412.63 149.61C412.12 149.72 411.32 152.04 411.32 152.04C411.32 152.04 410.76 152.57 408.99 154.2C389.23 144.2 382.91 156.27 382.36 162.07C386.5 156.79 391.16 157.67 395.36 160.46C396.52 158.7 401.85 158.23 404.72 160.88C407.379 161.07 409.881 162.21 411.77 164.09Z" fill="#E6E6E6"/>
<path d="M75.8101 74.6901C76.7429 73.9403 77.9139 73.55 79.1101 73.5901C80.5301 72.5901 82.9101 73.0101 83.3401 73.8601C85.3401 72.8601 87.5101 72.6401 89.1101 75.2101C89.1101 72.5801 86.8901 66.8401 77.5301 70.3801C76.8101 69.5701 76.5901 69.3001 76.5901 69.3001C76.5901 69.3001 76.3401 68.2201 76.1101 68.1401C75.8801 68.0601 76.0001 69.2901 76.0001 69.2901C75.776 69.2211 75.5405 69.1971 75.3071 69.2194C75.0737 69.2417 74.847 69.3099 74.6401 69.4201C74.6401 69.4201 74.5101 68.2001 74.3001 68.3201C74.0901 68.4401 74.0001 69.5401 74.0001 69.5401C74.0001 69.5401 73.8301 69.8401 73.2701 70.7801C63.4101 69.0501 62.2701 75.1101 62.8001 77.6901C63.8901 74.8701 66.0201 74.6301 68.2101 75.2801C68.4801 74.3701 70.7301 73.4601 72.3201 74.2801C73.4947 73.99 74.7346 74.1357 75.8101 74.6901Z" fill="#E6E6E6"/>
<path d="M394.06 87.49C384.6 96.07 367.54 103.18 363.61 85.02C367.981 86.0404 372.414 86.7786 376.88 87.23C376.45 88.94 378.65 91.84 382.15 91.67C385.21 91.52 387.02 89.37 385.58 87.77C388.41 87.835 391.241 87.7415 394.06 87.49Z" fill="#E6E6E6"/>
<path d="M402.74 85.5901C405.402 84.638 408.009 83.5397 410.55 82.3001C409.94 84.3001 412.46 85.5401 415.3 84.4001C418.57 83.0801 419.3 79.5201 418.24 78.1501C422.103 75.8722 425.817 73.3505 429.36 70.6001C433.39 88.7401 414.92 89.4201 402.74 85.5901Z" fill="#E6E6E6"/>
<path d="M356.55 99.0701L354.86 105.52C351.86 101.44 350.18 97.3701 350.08 94.0901C351.907 96.1392 354.102 97.8283 356.55 99.0701Z" fill="#EBEBEB"/>
<path d="M367.58 103.09L359.45 110.67C358.081 109.377 356.805 107.991 355.63 106.52L357.45 99.52C360.659 101.14 364.064 102.34 367.58 103.09Z" fill="#EBEBEB"/>
<path d="M375 104.18L382 122.69C373.917 120.776 366.439 116.879 360.24 111.35L368.83 103.35C370.871 103.733 372.93 104.01 375 104.18Z" fill="#EBEBEB"/>
<path d="M393.34 103.43L384.14 123.18L383.14 122.97L376.14 104.26C381.887 104.595 387.653 104.317 393.34 103.43Z" fill="#EBEBEB"/>
<path d="M397.86 102.66L411.86 121.99L411.28 122.14C402.768 124.43 393.861 124.853 385.17 123.38L394.54 103.25C395.62 103.08 396.72 102.89 397.86 102.66Z" fill="#EBEBEB"/>
<path d="M417.61 96.91L412.76 121.52L398.94 102.45C400.28 102.19 401.67 101.89 403.08 101.56C408.048 100.431 412.909 98.8748 417.61 96.91Z" fill="#EBEBEB"/>
<path d="M420.11 95.8L437.46 107.33C432.32 113.4 424.55 118.33 413.79 121.45L418.72 96.45C419.19 96.23 419.65 96 420.11 95.8Z" fill="#EBEBEB"/>
<path d="M433 87.2201L439.84 104.13C439.29 104.95 438.71 105.76 438.08 106.55L421.16 95.2901C425.491 93.2131 429.483 90.4922 433 87.2201Z" fill="#EBEBEB"/>
<path d="M441.65 65.6801C442.425 67.7202 443.093 69.7998 443.65 71.9101L441.85 71.3701C442.189 69.4808 442.121 67.5408 441.65 65.6801Z" fill="#EBEBEB"/>
<path d="M445.19 80.3301L437.39 82.1801C439.488 79.2423 440.946 75.8968 441.67 72.3601L443.93 73.0501C444.528 75.4426 444.949 77.8758 445.19 80.3301Z" fill="#EBEBEB"/>
<path d="M440.51 103.09L433.79 86.4601C434.741 85.5128 435.635 84.5111 436.47 83.4601L445.28 81.3701C445.88 89.2501 444.41 96.6701 440.51 103.09Z" fill="#EBEBEB"/>
<path d="M250 427.56C357.082 427.56 443.89 422.492 443.89 416.24C443.89 409.988 357.082 404.92 250 404.92C142.917 404.92 56.1099 409.988 56.1099 416.24C56.1099 422.492 142.917 427.56 250 427.56Z" fill="#F5F5F5"/>
<path d="M207.68 407.809L191.88 408.979L191.44 403.139L205.69 402.139L205.25 396.139L191 397.139L190.65 392.439L206.01 391.309L205.55 384.979L181 386.789L182.62 409.179H207.74L207.68 407.809Z" fill="#746AFF"/>
<path d="M237.28 403.749C236.859 403.125 236.384 402.54 235.86 401.999C235.39 401.458 234.86 400.971 234.28 400.549C233.504 400.127 232.673 399.817 231.81 399.629C232.921 399.326 233.977 398.85 234.94 398.219C236.086 397.43 237.009 396.359 237.62 395.109C238.257 393.756 238.513 392.256 238.36 390.769C238.304 389.068 237.716 387.428 236.68 386.079C235.719 384.859 234.372 384.003 232.86 383.649C230.705 383.235 228.501 383.148 226.32 383.389L211.06 384.519L212.88 409.219H222.13L221.55 401.449L222.36 401.389C223.162 401.327 223.963 401.508 224.66 401.909C225.406 402.502 226.028 403.236 226.49 404.069L229.78 409.219H240.68L237.28 403.749ZM228.76 393.939C228.432 394.437 227.929 394.794 227.35 394.939C226.569 395.207 225.766 395.405 224.95 395.529L221.09 395.809L220.64 389.809L224.64 389.519C225.822 389.309 227.041 389.491 228.11 390.039C228.44 390.289 228.708 390.611 228.895 390.98C229.082 391.349 229.183 391.755 229.19 392.169C229.25 392.79 229.098 393.414 228.76 393.939Z" fill="#746AFF"/>
<path d="M269.48 401.369C269.067 400.742 268.591 400.159 268.06 399.629C267.598 399.08 267.067 398.593 266.48 398.179C265.709 397.755 264.88 397.445 264.02 397.259C265.128 396.956 266.181 396.48 267.14 395.849C268.337 395.038 269.29 393.916 269.894 392.603C270.499 391.289 270.733 389.836 270.57 388.399C270.497 386.689 269.888 385.045 268.83 383.699C267.864 382.49 266.524 381.635 265.02 381.269C262.865 380.86 260.66 380.776 258.48 381.019L243.21 382.179L245.21 409.249H254.45L253.68 399.069L254.49 399.019C255.289 398.943 256.092 399.126 256.78 399.539C257.534 400.124 258.157 400.86 258.61 401.699L263.42 409.219H274.26L269.48 401.369ZM260.97 391.569C260.635 392.064 260.13 392.42 259.55 392.569C258.771 392.829 257.972 393.023 257.16 393.149L253.29 393.439L252.85 387.439L256.85 387.129C258.032 386.921 259.25 387.104 260.32 387.649C260.651 387.899 260.919 388.223 261.105 388.594C261.291 388.965 261.388 389.374 261.39 389.789C261.459 390.413 261.31 391.042 260.97 391.569Z" fill="#746AFF"/>
<path d="M319.59 391.039C319.236 386.266 317.626 382.656 314.76 380.209C311.91 377.759 308 376.709 303.07 377.069C298.14 377.429 294.6 379.069 292.07 381.949C289.54 384.829 288.5 388.709 288.86 393.549C288.971 396.571 289.893 399.507 291.53 402.049C292.923 404.14 294.912 405.763 297.24 406.709C299.931 407.677 302.807 408.019 305.65 407.709C308.519 407.596 311.311 406.749 313.76 405.249C315.831 403.902 317.456 401.97 318.43 399.699C319.512 396.949 319.91 393.977 319.59 391.039ZM309.31 398.609C308.762 399.262 308.088 399.798 307.329 400.185C306.569 400.572 305.739 400.802 304.889 400.861C304.038 400.919 303.185 400.806 302.379 400.528C301.573 400.249 300.832 399.811 300.2 399.239C299 398.019 298.28 395.899 298.06 392.909C297.84 389.919 298.24 387.689 299.26 386.299C299.755 385.615 300.4 385.054 301.145 384.657C301.89 384.26 302.716 384.038 303.56 384.009C304.418 383.906 305.288 383.996 306.106 384.273C306.925 384.55 307.671 385.006 308.29 385.609C309.5 386.809 310.22 388.799 310.43 391.609C310.68 394.909 310.29 397.249 309.31 398.609Z" fill="#746AFF"/>
<path d="M351.42 395.019C352.3 393.689 352.815 392.152 352.915 390.56C353.015 388.969 352.696 387.379 351.99 385.949C351.244 384.603 350.068 383.547 348.65 382.949C346.594 382.174 344.433 381.712 342.24 381.579L327.02 380.079L324.12 409.179H333.4L334.46 398.459L335.26 398.539C336.062 398.612 336.82 398.934 337.43 399.459C338.075 400.161 338.562 400.993 338.86 401.899L341.92 409.179H351.92L349.64 403.429C349.342 402.727 348.973 402.057 348.54 401.429C348.178 400.811 347.741 400.241 347.24 399.729C346.55 399.176 345.781 398.728 344.96 398.399C346.108 398.287 347.231 397.997 348.29 397.539C349.526 396.971 350.601 396.105 351.42 395.019ZM343.68 390.699C343.628 391.317 343.367 391.899 342.94 392.349C342.527 392.796 341.965 393.077 341.36 393.139C340.547 393.269 339.723 393.319 338.9 393.289L335.05 392.919L335.64 386.919L339.64 387.309C340.84 387.307 342.008 387.693 342.97 388.409C343.251 388.714 343.461 389.078 343.584 389.474C343.706 389.87 343.739 390.288 343.68 390.699Z" fill="#746AFF"/>
<g opacity="0.5">
<path d="M207.68 407.809L191.88 408.979L191.44 403.139L205.69 402.139L205.25 396.139L191 397.139L190.65 392.439L206.01 391.309L205.55 384.979L181 386.789L182.62 409.179H207.74L207.68 407.809Z" fill="white"/>
<path d="M237.28 403.749C236.859 403.125 236.384 402.54 235.86 401.999C235.39 401.458 234.86 400.971 234.28 400.549C233.504 400.127 232.673 399.817 231.81 399.629C232.921 399.326 233.977 398.85 234.94 398.219C236.086 397.43 237.009 396.359 237.62 395.109C238.257 393.756 238.513 392.256 238.36 390.769C238.304 389.068 237.716 387.428 236.68 386.079C235.719 384.859 234.372 384.003 232.86 383.649C230.705 383.235 228.501 383.148 226.32 383.389L211.06 384.519L212.88 409.219H222.13L221.55 401.449L222.36 401.389C223.162 401.327 223.963 401.508 224.66 401.909C225.406 402.502 226.028 403.236 226.49 404.069L229.78 409.219H240.68L237.28 403.749ZM228.76 393.939C228.432 394.437 227.929 394.794 227.35 394.939C226.569 395.207 225.766 395.405 224.95 395.529L221.09 395.809L220.64 389.809L224.64 389.519C225.822 389.309 227.041 389.491 228.11 390.039C228.44 390.289 228.708 390.611 228.895 390.98C229.082 391.349 229.183 391.755 229.19 392.169C229.25 392.79 229.098 393.414 228.76 393.939Z" fill="white"/>
<path d="M269.48 401.369C269.067 400.742 268.591 400.159 268.06 399.629C267.598 399.08 267.067 398.593 266.48 398.179C265.709 397.755 264.88 397.445 264.02 397.259C265.128 396.956 266.181 396.48 267.14 395.849C268.337 395.038 269.29 393.916 269.894 392.603C270.499 391.289 270.733 389.836 270.57 388.399C270.497 386.689 269.888 385.045 268.83 383.699C267.864 382.49 266.524 381.635 265.02 381.269C262.865 380.86 260.66 380.776 258.48 381.019L243.21 382.179L245.21 409.249H254.45L253.68 399.069L254.49 399.019C255.289 398.943 256.092 399.126 256.78 399.539C257.534 400.124 258.157 400.86 258.61 401.699L263.42 409.219H274.26L269.48 401.369ZM260.97 391.569C260.635 392.064 260.13 392.42 259.55 392.569C258.771 392.829 257.972 393.023 257.16 393.149L253.29 393.439L252.85 387.439L256.85 387.129C258.032 386.921 259.25 387.104 260.32 387.649C260.651 387.899 260.919 388.223 261.105 388.594C261.291 388.965 261.388 389.374 261.39 389.789C261.459 390.413 261.31 391.042 260.97 391.569Z" fill="white"/>
<path d="M319.59 391.039C319.236 386.266 317.626 382.656 314.76 380.209C311.91 377.759 308 376.709 303.07 377.069C298.14 377.429 294.6 379.069 292.07 381.949C289.54 384.829 288.5 388.709 288.86 393.549C288.971 396.571 289.893 399.507 291.53 402.049C292.923 404.14 294.912 405.763 297.24 406.709C299.931 407.677 302.807 408.019 305.65 407.709C308.519 407.596 311.311 406.749 313.76 405.249C315.831 403.902 317.456 401.97 318.43 399.699C319.512 396.949 319.91 393.977 319.59 391.039ZM309.31 398.609C308.762 399.262 308.088 399.798 307.329 400.185C306.569 400.572 305.739 400.802 304.889 400.861C304.038 400.919 303.185 400.806 302.379 400.528C301.573 400.249 300.832 399.811 300.2 399.239C299 398.019 298.28 395.899 298.06 392.909C297.84 389.919 298.24 387.689 299.26 386.299C299.755 385.615 300.4 385.054 301.145 384.657C301.89 384.26 302.716 384.038 303.56 384.009C304.418 383.906 305.288 383.996 306.106 384.273C306.925 384.55 307.671 385.006 308.29 385.609C309.5 386.809 310.22 388.799 310.43 391.609C310.68 394.909 310.29 397.249 309.31 398.609Z" fill="white"/>
<path d="M351.42 395.019C352.3 393.689 352.815 392.152 352.915 390.56C353.015 388.969 352.696 387.379 351.99 385.949C351.244 384.603 350.068 383.547 348.65 382.949C346.594 382.174 344.433 381.712 342.24 381.579L327.02 380.079L324.12 409.179H333.4L334.46 398.459L335.26 398.539C336.062 398.612 336.82 398.934 337.43 399.459C338.075 400.161 338.562 400.993 338.86 401.899L341.92 409.179H351.92L349.64 403.429C349.342 402.727 348.973 402.057 348.54 401.429C348.178 400.811 347.741 400.241 347.24 399.729C346.55 399.176 345.781 398.728 344.96 398.399C346.108 398.287 347.231 397.997 348.29 397.539C349.526 396.971 350.601 396.105 351.42 395.019ZM343.68 390.699C343.628 391.317 343.367 391.899 342.94 392.349C342.527 392.796 341.965 393.077 341.36 393.139C340.547 393.269 339.723 393.319 338.9 393.289L335.05 392.919L335.64 386.919L339.64 387.309C340.84 387.307 342.008 387.693 342.97 388.409C343.251 388.714 343.461 389.078 343.584 389.474C343.706 389.87 343.739 390.288 343.68 390.699Z" fill="white"/>
</g>
<path d="M307.28 336.74C309.28 339.41 310.59 345.84 307.28 346.61C303.97 347.38 305.28 336.91 305.28 336.91C304.36 336 305.12 333.8 307.28 336.74Z" fill="#746AFF"/>
<path d="M299.92 391.48C302.03 392.96 304.62 397.36 302.34 398.76C300.06 400.16 298.45 392.12 298.45 392.12C297.59 391.68 297.6 389.86 299.92 391.48Z" fill="#746AFF"/>
<path d="M261.37 393.31C261.23 395.88 258.87 400.41 256.47 399.21C254.07 398.01 260.05 392.4 260.05 392.4C260 391.43 261.52 390.48 261.37 393.31Z" fill="#746AFF"/>
<path d="M306.23 332.45C309.59 332.91 313.88 336.56 310.42 339.65C306.96 342.74 303.99 334.11 303.99 334.11C302.63 334.12 302.53 331.94 306.23 332.45Z" fill="#746AFF"/>
<path d="M306.19 335.81C309.28 353.04 299.68 372.39 302.5 390.95C303.27 396.06 295.11 390.69 295.11 390.69C295.11 390.69 276.11 388.84 271.01 390.82C270.13 395.61 256.63 398.82 255.82 389.63C255.01 380.44 254.25 357.63 254.25 357.63C254.25 357.63 291.86 331.7 306.19 335.81Z" fill="#746AFF"/>
<path opacity="0.2" d="M260.78 353.36C256.78 355.88 254.25 357.62 254.25 357.62C254.25 357.62 254.47 364.27 254.8 371.83C263.58 366.48 271.06 357.83 271.06 357.83C267.854 355.876 264.395 354.372 260.78 353.36Z" fill="black"/>
<path d="M259.93 391.74C259.23 400.89 250.73 413.9 253.79 417.74C256.85 421.58 307.07 421.26 313.79 417.74C320.51 414.22 298.48 399.74 298.84 387.62C260.64 377.67 259.93 391.74 259.93 391.74Z" fill="#746AFF"/>
<path d="M260.13 414.32C255.64 409.83 247.88 414.43 246.7 419.83C255.62 421.7 261.77 419.01 261.77 419.01C261.83 418.158 261.716 417.302 261.434 416.496C261.152 415.69 260.708 414.949 260.13 414.32Z" fill="#263238"/>
<path d="M308.9 413.16C313.38 408.67 321.15 413.28 322.32 418.67C313.41 420.55 307.25 417.85 307.25 417.85C307.19 416.997 307.306 416.141 307.59 415.334C307.873 414.528 308.319 413.788 308.9 413.16Z" fill="#263238"/>
<path d="M298.12 414.18C302.36 408.8 309.7 414.32 310.81 420.79C302.39 423.04 296.57 419.79 296.57 419.79C296.451 417.8 296.996 415.827 298.12 414.18Z" fill="#263238"/>
<path d="M288.36 413.49C298.23 412.09 299.82 416.49 296.05 422.06C285.52 422.24 283.9 419.81 283.9 419.81C283.9 419.81 281.39 414.49 288.36 413.49Z" fill="#263238"/>
<path d="M166.61 304.41C163.4 305.23 158.27 309.33 160.38 312.06C162.49 314.79 168.09 305.85 168.09 305.85C169.32 305.71 170.14 303.52 166.61 304.41Z" fill="#746AFF"/>
<path d="M141.2 349.06C138.69 349.66 134.66 352.79 136.27 354.94C137.88 357.09 142.33 350.19 142.33 350.19C143.29 350.1 144 348.4 141.2 349.06Z" fill="#746AFF"/>
<path d="M173.13 373.73C171.47 375.73 170.13 380.62 172.67 381.38C175.21 382.14 174.67 373.96 174.67 373.96C175.43 373.31 175 371.56 173.13 373.73Z" fill="#746AFF"/>
<path d="M198.88 350.18C196.99 351.94 195.01 356.64 197.47 357.72C199.93 358.8 200.42 350.62 200.42 350.62C201.22 350.06 201 348.26 198.88 350.18Z" fill="#746AFF"/>
<path d="M170.15 301.77C167.26 299.99 161.63 300.08 162.33 304.66C163.03 309.24 170.82 304.47 170.82 304.47C171.87 305.34 173.33 303.72 170.15 301.77Z" fill="#746AFF"/>
<path d="M180.44 293.78C167.08 305.1 155.13 334.14 141.14 346.66C137.29 350.11 147 351.16 147 351.16C147 351.16 165.13 359.52 167.81 364.3C165.43 368.55 173.81 379.61 180.28 373.06C186.75 366.51 201.88 349.38 201.88 349.38C201.88 349.38 194.1 299.74 180.44 293.78Z" fill="#746AFF"/>
<path d="M114.68 380.11C110.99 374.95 102.57 378.23 100.53 383.36C109.02 386.66 115.53 385.01 115.53 385.01C115.729 384.178 115.757 383.315 115.61 382.472C115.464 381.63 115.148 380.826 114.68 380.11Z" fill="#263238"/>
<path d="M174.58 373.09C168.58 380.09 172.94 404.9 168.34 406.69C163.74 408.48 89.9998 394.93 116.59 376.39C122.79 372.07 136.95 360.28 141.08 348.91C180.24 353.7 174.58 373.09 174.58 373.09Z" fill="#746AFF"/>
<path d="M165.91 400.54C171.46 403.63 169.17 412.36 164.31 414.97C160.05 406.92 160.95 400.26 160.95 400.26C161.752 399.967 162.606 399.841 163.459 399.889C164.312 399.937 165.146 400.158 165.91 400.54Z" fill="#263238"/>
<path d="M120.67 386.12C116.79 378.32 106.83 383.58 103.98 389.26C110.11 395.46 119.17 391.76 119.17 391.76C119.17 391.76 122 388.77 120.67 386.12Z" fill="#263238"/>
<path d="M128.7 390.62C120.53 384.92 113.61 391.51 114.48 398.18C123.79 403.08 129.84 398.26 129.84 398.26C129.84 398.26 134.48 394.65 128.7 390.62Z" fill="#263238"/>
<path d="M232.42 363.48C283.73 372.29 319.01 339.6 357.72 259.71C379.26 215.25 353.07 184.71 338.72 178.99C345.23 164.64 338.66 142.57 329.22 133.1C332.76 136.1 338.29 132.99 338.29 132.99C331.29 129.18 321.89 94.7199 279.98 86.5699C241.75 79.1399 222.5 100.5 208.55 108.33C208.55 108.33 211.65 113.98 218.04 114.01C205.99 119.79 194.8 135.72 193.79 154.11C178.34 154.67 146.94 174.5 148.93 223.86C152.5 312.56 181.11 354.67 232.42 363.48Z" fill="#746AFF"/>
<path opacity="0.1" d="M218.7 142.68C232.09 140.89 245.43 144.75 251.7 150.38C238.53 144.94 218.7 142.68 218.7 142.68Z" fill="black"/>
<path opacity="0.1" d="M280.93 159.87C292.4 157.47 304.19 159.96 310.01 164.42C298.23 160.57 280.93 159.87 280.93 159.87Z" fill="black"/>
<path opacity="0.1" d="M234.38 150.38C239.5 147.67 245.22 148.17 249.24 151.68C244.329 150.853 239.36 150.418 234.38 150.38Z" fill="black"/>
<path opacity="0.2" d="M148.87 222.61C158.17 211.76 165.77 196.73 167.18 187.44C162.644 187.735 158.153 188.509 153.78 189.75C150.43 198.76 148.49 209.65 148.87 222.61Z" fill="black"/>
<path opacity="0.2" d="M365.69 221.73C362.366 219.926 358.898 218.404 355.32 217.18C354.42 225.27 356.89 238.71 361.58 250.54C364.999 241.342 366.401 231.517 365.69 221.73Z" fill="black"/>
<path opacity="0.1" d="M221.53 151.53C219.27 146.88 215.11 143.9 210.59 144.05C207.3 144.16 197.96 144.58 204.79 160.23C212.36 177.58 231.18 171.32 221.53 151.53Z" fill="black"/>
<path opacity="0.1" d="M323.15 158.83C327.01 157.12 330.43 157.83 331.89 161.05C332.95 163.37 335.89 170.05 323.2 176.32C309.12 183.29 306.73 166.1 323.15 158.83Z" fill="black"/>
<path d="M261.69 144.6C260.989 146.243 259.93 147.709 258.59 148.89C257.929 149.474 257.087 149.811 256.205 149.842C255.324 149.873 254.46 149.596 253.76 149.06C247.872 144.862 241.073 142.121 233.92 141.06C233.325 140.967 232.761 140.735 232.272 140.383C231.783 140.032 231.384 139.57 231.107 139.036C230.829 138.501 230.681 137.909 230.675 137.307C230.669 136.705 230.804 136.11 231.07 135.57C239 120.25 267.81 130 261.69 144.6Z" fill="white"/>
<path d="M249.65 134.76C254.49 128.93 263.94 136.36 260.65 142C256.87 148.38 243.67 142 249.65 134.76Z" fill="#263238"/>
<path d="M306.24 158.84C297.855 157.583 289.358 157.247 280.9 157.84C279.509 157.946 278.116 157.66 276.879 157.015C275.641 156.37 274.61 155.391 273.9 154.19C272.968 152.584 272.325 150.828 272 149C268.56 128.25 308.72 124.51 314.23 146.61C314.585 148.001 314.826 149.419 314.95 150.85C315.034 151.984 314.86 153.123 314.441 154.18C314.022 155.238 313.369 156.186 312.531 156.955C311.693 157.724 310.691 158.293 309.602 158.62C308.512 158.946 307.363 159.021 306.24 158.84Z" fill="white"/>
<path d="M286.13 143.15C283.79 139.82 277.34 143.03 279.25 146.27C281.16 149.51 289.23 147.54 286.13 143.15Z" fill="#263238"/>
<path d="M211.18 151.51C223.24 167.77 248.18 170.51 272.74 172.93C297.3 175.35 321.81 172.93 325.17 164.59C323.28 182.27 317.54 208.59 262.63 199.65C202.06 189.77 211.18 151.51 211.18 151.51Z" fill="#263238"/>
<mask id="mask0_129_606" style="mask-type:luminance" maskUnits="userSpaceOnUse" x="210" y="151" width="116" height="51">
<path d="M211.18 151.51C223.24 167.77 248.18 170.51 272.74 172.93C297.3 175.35 321.81 172.93 325.17 164.59C323.28 182.27 317.54 208.59 262.63 199.65C202.06 189.77 211.18 151.51 211.18 151.51Z" fill="white"/>
</mask>
<g mask="url(#mask0_129_606)">
<path opacity="0.5" d="M206.25 183.3C220.49 175.13 241.7 173.96 264.55 187.8C277.84 183.36 305.69 180.08 314.73 205.71C255.39 218.69 206.25 183.3 206.25 183.3Z" fill="#746AFF"/>
<path d="M266.8 171.05C265.5 175.82 259.88 179.37 255.33 178.24C253.254 177.811 251.404 176.647 250.118 174.962C248.832 173.277 248.197 171.185 248.33 169.07L266.8 171.05Z" fill="white"/>
<path d="M243.92 168C242.02 172 236.07 173.85 232.67 172.55C228.19 170.83 227.94 163.36 227.94 163.36L243.92 168Z" fill="white"/>
<path d="M227.39 161.6C224.91 164.15 220.13 164.43 217.66 162.13C216.5 161.135 215.739 159.753 215.517 158.241C215.294 156.729 215.626 155.187 216.45 153.9L227.39 161.6Z" fill="white"/>
<path d="M272.29 171.9C272.74 176.31 277.24 179.19 281.38 179.9C285.14 180.58 288.9 172.81 288.9 172.81L272.29 171.9Z" fill="white"/>
<path d="M294.3 171.82C295.16 175.27 297.92 178.01 299.91 177.38C303.26 176.31 302.54 171.12 302.54 171.12L294.3 171.82Z" fill="white"/>
<path d="M308.75 170.92C309.207 172.008 310.041 172.895 311.099 173.418C312.157 173.942 313.368 174.067 314.51 173.77C315.469 173.466 316.286 172.826 316.811 171.969C317.337 171.111 317.535 170.092 317.37 169.1L308.75 170.92Z" fill="white"/>
<path d="M257.22 202C258.48 197.22 264.08 193.62 268.64 194.72C270.719 195.134 272.578 196.284 273.875 197.96C275.172 199.636 275.821 201.724 275.7 203.84L257.22 202Z" fill="white"/>
<path d="M284 204.33C284.13 199.9 288.86 195.83 292.49 195.66C297.28 195.45 300.49 202.19 300.49 202.19L284 204.33Z" fill="white"/>
<path d="M304.45 199.62C304.33 194.84 306.16 190.4 308.18 190.62C311.58 190.96 312.29 197.97 312.29 197.97L304.45 199.62Z" fill="white"/>
<path d="M247.43 198.9C248.43 193.37 245.01 188.61 241.2 186.57C237.72 184.71 231.42 193.22 231.42 193.22L247.43 198.9Z" fill="white"/>
<path d="M225.74 187.2C227.03 183.89 226.37 180.06 224.37 179.43C221.02 178.36 218.61 183.02 218.61 183.02L225.74 187.2Z" fill="white"/>
<path d="M220.61 183.1C221.259 182.115 221.531 180.928 221.376 179.759C221.222 178.589 220.652 177.514 219.77 176.73C218.985 176.101 218 175.777 216.996 175.815C215.991 175.854 215.034 176.253 214.3 176.94L220.61 183.1Z" fill="white"/>
</g>
<path d="M203.11 127.3C197.34 135.08 192.31 141.12 189.72 142.3C195.13 144.91 198.56 142.8 198.56 142.8C198.56 142.8 209.43 118.78 203.11 127.3Z" fill="#746AFF"/>
<path d="M294.67 90.93C287.46 85 270 86.82 258.35 75.39C256.28 81.03 260.81 85.12 260.81 85.12C260.81 85.12 302.87 97.66 294.67 90.93Z" fill="#746AFF"/>
<path d="M295.1 91C290.7 85.3 279.64 87.55 272.58 76.45C272.137 78.0632 272.023 79.7493 272.247 81.4074C272.47 83.0655 273.026 84.6615 273.88 86.1C273.88 86.1 300.1 97.46 295.1 91Z" fill="#746AFF"/>
<path d="M104.91 191.53C96.29 195.06 89.58 211.27 74 216.1C78 220.6 83.73 218.56 83.73 218.56C83.73 218.56 114.73 187.51 104.91 191.53Z" fill="#746AFF"/>
<path d="M85.3701 270.62C85.3701 291.5 97.4701 292.07 97.0001 308.39C102.54 306.08 104.1 299.39 104.1 299.39C104.1 299.39 85.3801 260 85.3701 270.62Z" fill="#746AFF"/>
<path d="M415.67 230.25C421.19 237.76 426.03 250.83 437.95 268.08C432.78 271.14 427.95 264.22 427.95 264.22C427.95 264.22 409.38 221.7 415.67 230.25Z" fill="#746AFF"/>
<path d="M105.75 190C98.9799 192.44 88.0399 210.09 74.9199 211C76.119 212.166 77.5414 213.079 79.1017 213.682C80.662 214.285 82.3281 214.567 83.9999 214.51C83.9999 214.51 101.17 206.54 105.75 190Z" fill="#746AFF"/>
<path d="M127.44 240.22C133.31 244.39 131.44 255.53 142.84 262.16C141.246 262.669 139.566 262.85 137.901 262.691C136.235 262.533 134.619 262.04 133.15 261.24C133.15 261.24 120.75 235.47 127.44 240.22Z" fill="#746AFF"/>
<path d="M246.27 92.62C244.12 98.86 236.27 105.01 225.99 105.74C220.16 103.31 206.75 81.02 208.71 68.33C210.67 55.64 235.8 38.86 240.84 38C245.44 37.19 225.5 57.68 226.49 68.56C227.48 79.44 246.27 92.62 246.27 92.62Z" fill="#263238"/>
<path d="M305.75 105.76C305.51 111.16 309.65 118.21 317.3 121.86C322.48 121.76 339.41 108.75 341.72 98.47C344.03 88.19 331.92 71.07 326.3 65.64C323.3 62.73 332.11 85.27 328.09 93.29C324.07 101.31 305.75 105.76 305.75 105.76Z" fill="#263238"/>
<mask id="mask1_129_606" style="mask-type:luminance" maskUnits="userSpaceOnUse" x="208" y="37" width="39" height="69">
<path d="M246.27 92.62C244.12 98.86 236.27 105.01 225.99 105.74C220.16 103.31 206.75 81.02 208.71 68.33C210.67 55.64 235.8 38.86 240.84 38C245.44 37.19 225.5 57.68 226.49 68.56C227.48 79.44 246.27 92.62 246.27 92.62Z" fill="white"/>
</mask>
<g mask="url(#mask1_129_606)">
<path opacity="0.3" d="M218.49 104.14C218.122 104.143 217.767 104.012 217.49 103.77C217.109 103.415 216.877 102.929 216.84 102.41C216.747 101.336 216.916 100.255 217.332 99.2609C217.749 98.2665 218.4 97.3877 219.23 96.7C220.579 95.557 222.071 94.5955 223.67 93.84L224.44 93.44C228.349 91.3441 232.003 88.804 235.33 85.87C236.75 84.62 238.08 83.23 238.33 81.5C238.383 81.2841 238.355 81.0561 238.25 80.86C238.034 80.6827 237.759 80.5934 237.48 80.61C232.57 80.25 227.88 83.01 224.35 85.46C223.71 85.9 223.08 86.35 222.45 86.8C219.11 89.17 215.67 91.62 211.67 92.69C210.276 93.1524 208.776 93.1907 207.36 92.8C206.614 92.5885 205.951 92.1508 205.464 91.5473C204.977 90.9438 204.689 90.204 204.64 89.43C204.64 87.84 205.8 86.43 208.09 85.26C210.757 83.9742 213.514 82.8846 216.34 82C217.62 81.57 218.89 81.15 220.15 80.68C223.56 79.42 227.86 77.52 230.81 74.03C231.41 73.32 232.05 72.29 231.7 71.43C231.484 70.9965 231.133 70.6454 230.7 70.43C229.17 69.49 227.14 69.26 224.5 69.72C220.417 70.4263 216.609 72.2505 213.5 74.99C212.93 75.49 212.39 75.99 211.84 76.55C210.515 77.9824 208.973 79.1972 207.27 80.15C204.74 81.4 201.08 81.15 199.59 78.68C198.34 76.58 199.21 73.9 200.72 72.33C202.356 70.8262 204.366 69.79 206.54 69.33C209.1 68.62 211.76 68.16 214.34 67.7C218.47 67.1439 222.518 66.0964 226.4 64.58C227.725 64.0512 228.944 63.2892 230 62.33C230.249 62.1291 230.425 61.8513 230.5 61.54C230.513 61.4523 230.506 61.3629 230.48 61.2781C230.454 61.1934 230.409 61.1155 230.35 61.05C229.795 60.6234 229.109 60.4041 228.41 60.43C222.64 60.33 216.79 60.32 211.04 60.43C208.88 60.48 207.51 59.71 207.39 58.43C207.32 57.57 207.84 56.76 208.99 55.97C212.35 53.6532 216.293 52.3262 220.37 52.14C222.922 52.1068 225.472 52.3009 227.99 52.72C230.898 53.2472 233.862 53.4017 236.81 53.18C237.222 53.1722 237.629 53.0794 238.004 52.9073C238.379 52.7352 238.715 52.4876 238.99 52.18C239.66 51.18 238.77 49.68 237.6 48.78C235.27 47 232.46 46.21 229.49 45.38C227.619 44.9124 225.784 44.3108 224 43.58C223.619 43.4243 223.276 43.1882 222.995 42.8879C222.714 42.5876 222.5 42.2302 222.37 41.84C222.329 41.6546 222.333 41.4619 222.384 41.2788C222.434 41.0957 222.529 40.9279 222.66 40.79C222.939 40.5316 223.286 40.3582 223.66 40.29C228.589 39.1751 233.755 39.8857 238.2 42.29C240.41 43.5 241.63 45 241.71 46.63C241.713 46.6825 241.705 46.7351 241.687 46.7846C241.67 46.8342 241.642 46.8798 241.607 46.9188C241.572 46.9578 241.529 46.9895 241.481 47.012C241.434 47.0345 241.382 47.0474 241.33 47.05C241.278 47.0527 241.226 47.0449 241.177 47.0271C241.128 47.0094 241.083 46.9819 241.045 46.9465C241.006 46.9111 240.976 46.8684 240.954 46.8209C240.933 46.7734 240.921 46.7221 240.92 46.67C240.83 44.97 239.19 43.73 237.82 42.99C233.537 40.6813 228.56 40.0129 223.82 41.11C223.593 41.1369 223.378 41.2269 223.2 41.37C223.153 41.4135 223.118 41.4692 223.101 41.5309C223.083 41.5927 223.083 41.6581 223.1 41.72C223.209 41.9848 223.369 42.2254 223.572 42.4279C223.774 42.6305 224.015 42.7909 224.28 42.9C226.032 43.6267 227.833 44.2282 229.67 44.7C232.58 45.51 235.59 46.36 238.04 48.23C239.54 49.37 240.56 51.23 239.61 52.7C239.271 53.1002 238.85 53.4232 238.375 53.6474C237.901 53.8716 237.384 53.9918 236.86 54C233.852 54.2214 230.829 54.0668 227.86 53.54C225.389 53.1218 222.886 52.9277 220.38 52.96C216.44 53.1379 212.63 54.4162 209.38 56.65C208.48 57.27 208.07 57.84 208.12 58.39C208.24 59.66 210.52 59.68 210.97 59.69C216.73 59.6 222.58 59.61 228.36 59.69C229.283 59.6502 230.186 59.9691 230.88 60.58C231.016 60.726 231.118 60.9005 231.178 61.0907C231.239 61.2809 231.256 61.4821 231.23 61.68C231.138 62.1765 230.877 62.6256 230.49 62.95C229.364 63.9762 228.064 64.7925 226.65 65.36C222.715 66.9021 218.609 67.9664 214.42 68.53C211.86 68.98 209.21 69.45 206.69 70.14C204.657 70.5646 202.773 71.5204 201.23 72.91C199.96 74.23 199.17 76.56 200.23 78.31C201.49 80.43 204.66 80.56 206.88 79.47C208.53 78.5493 210.028 77.3788 211.32 76C211.87 75.46 212.43 74.92 213.01 74.42C216.229 71.5951 220.168 69.7188 224.39 69C227.24 68.51 229.45 68.77 231.14 69.81C231.708 70.113 232.162 70.5943 232.43 71.18C232.83 72.18 232.43 73.33 231.43 74.59C228.35 78.22 223.94 80.18 220.43 81.47C219.17 81.94 217.89 82.37 216.61 82.8C213.798 83.6616 211.053 84.7312 208.4 86C206.4 87 205.4 88.2 205.4 89.47C205.454 90.0763 205.692 90.6516 206.082 91.1196C206.471 91.5876 206.994 91.926 207.58 92.09C208.847 92.4265 210.186 92.3848 211.43 91.97C215.3 90.97 218.68 88.52 221.96 86.2C222.59 85.74 223.23 85.29 223.87 84.85C227.51 82.33 232.35 79.48 237.51 79.85C237.759 79.844 238.006 79.8909 238.235 79.9874C238.464 80.0839 238.67 80.2279 238.84 80.41C238.96 80.5848 239.044 80.7819 239.087 80.9897C239.13 81.1975 239.131 81.4118 239.09 81.62C238.86 83.62 237.41 85.14 235.88 86.49C232.522 89.4663 228.831 92.0435 224.88 94.17L224.11 94.57C222.574 95.2941 221.138 96.2152 219.84 97.31C219.105 97.9084 218.526 98.6756 218.152 99.5462C217.777 100.417 217.619 101.365 217.69 102.31C217.708 102.639 217.843 102.951 218.07 103.19C218.68 103.7 219.78 102.94 220.22 102.6L222.51 100.78C227.35 96.7586 232.455 93.067 237.79 89.73C244.93 85.49 251.86 83.18 258.4 82.88C258.504 82.8772 258.606 82.9154 258.682 82.9865C258.759 83.0575 258.805 83.1556 258.81 83.26C258.813 83.312 258.805 83.3641 258.787 83.4131C258.769 83.462 258.742 83.507 258.706 83.5452C258.671 83.5834 258.628 83.6141 258.581 83.6356C258.533 83.657 258.482 83.6687 258.43 83.67C252.03 83.97 245.22 86.23 238.19 90.41C232.889 93.7375 227.815 97.4122 223 101.41L220.71 103.23C220.092 103.773 219.311 104.093 218.49 104.14Z" fill="white"/>
</g>
<mask id="mask2_129_606" style="mask-type:luminance" maskUnits="userSpaceOnUse" x="305" y="65" width="38" height="57">
<path d="M305.75 105.76C305.51 111.16 309.65 118.21 317.3 121.86C322.48 121.76 339.41 108.75 341.72 98.47C344.03 88.19 331.92 71.07 326.3 65.64C323.3 62.73 332.11 85.27 328.09 93.29C324.07 101.31 305.75 105.76 305.75 105.76Z" fill="white"/>
</mask>
<g mask="url(#mask2_129_606)">
<path opacity="0.3" d="M327.57 123.71C326.776 123.59 326.047 123.198 325.51 122.6L325.27 122.39C324.275 121.608 323.225 120.896 322.13 120.26C318.41 117.97 313.77 115.12 311.01 107.26C309.01 101.52 301.59 99.26 295.07 97.34L293 96.75C292.901 96.7157 292.819 96.6447 292.771 96.5518C292.723 96.4588 292.712 96.3508 292.74 96.25C292.773 96.1495 292.843 96.0657 292.937 96.017C293.03 95.9683 293.14 95.9586 293.24 95.99L295.24 96.61C301.95 98.61 309.55 100.91 311.71 107.03C314.38 114.59 318.88 117.36 322.49 119.58C323.622 120.235 324.704 120.97 325.73 121.78L325.98 122C326.56 122.51 327.22 123.08 327.77 122.88C328.007 122.76 328.192 122.557 328.29 122.31C328.87 121.06 328.5 119.37 327.29 117.79C326.254 116.547 325.072 115.432 323.77 114.47L323.11 113.94C319.795 111.246 316.778 108.206 314.11 104.87C312.92 103.37 311.85 101.74 312.06 100.03C312.069 99.8333 312.122 99.6411 312.215 99.4679C312.309 99.2946 312.441 99.1449 312.6 99.03C313.037 98.8188 313.536 98.7796 314 98.92C319.05 99.92 323.09 103.5 326.06 106.48C326.58 107 327.06 107.48 327.61 108.06C330.27 110.8 333.01 113.63 336.53 115.47C337.656 116.133 338.926 116.513 340.23 116.58C341.34 116.58 342.6 116.05 342.87 115.08C343.2 113.85 341.87 112.49 340.7 111.57C338.396 109.837 335.981 108.257 333.47 106.84C332.33 106.16 331.19 105.48 330.07 104.77C326.97 102.77 323.13 100.09 320.95 96.35C319.95 94.67 320.29 93.72 320.73 93.22C321.152 92.7957 321.699 92.5187 322.29 92.43C324.588 92.0874 326.935 92.4757 329 93.54C332.821 95.1524 336.187 97.68 338.8 100.9C339.25 101.46 339.66 102.04 340.08 102.62C341.038 104.096 342.211 105.42 343.56 106.55C345.48 108.03 348.64 108.71 350.27 107.36C351.61 106.24 351.37 104.25 350.43 102.86C349.181 101.286 347.577 100.028 345.75 99.19C343.46 97.98 341.01 96.91 338.63 95.89C334.738 94.3594 331.012 92.4361 327.51 90.15C326.303 89.3464 325.232 88.3537 324.34 87.21C324.035 86.8552 323.874 86.3981 323.89 85.93C323.909 85.769 323.962 85.6139 324.047 85.4757C324.131 85.3375 324.245 85.2195 324.38 85.13C325.24 84.7395 326.215 84.6895 327.11 84.99C332.69 86.4 338.34 87.91 343.91 89.48C345.22 89.85 346.66 89.92 346.91 89.22C347.06 88.83 346.78 88.28 346.08 87.57C343.328 84.8643 339.963 82.8642 336.27 81.74C333.886 81.0719 331.456 80.5772 329 80.26C326.006 79.9004 323.056 79.2301 320.2 78.26C319.217 77.9922 318.373 77.3591 317.84 76.49C317.737 76.2624 317.683 76.0151 317.683 75.765C317.683 75.5149 317.737 75.2677 317.84 75.04C318.402 74.1121 319.302 73.4381 320.35 73.16C323.13 72.28 326.21 72.38 329.2 72.47C331.066 72.5685 332.937 72.5518 334.8 72.42C335.32 72.3994 335.812 72.177 336.17 71.8C336.192 71.7709 336.203 71.7359 336.203 71.7C336.203 71.6641 336.192 71.6291 336.17 71.6C336.02 71.4308 335.832 71.3004 335.62 71.22C331.296 69.1048 326.428 68.3649 321.67 69.1C320.2 69.35 318.35 69.92 317.92 71.23C317.886 71.3287 317.815 71.4101 317.721 71.4568C317.628 71.5036 317.52 71.5119 317.42 71.48C317.322 71.4458 317.24 71.3744 317.194 71.2809C317.147 71.1875 317.139 71.0795 317.17 70.98C317.61 69.64 319.12 68.72 321.54 68.32C326.461 67.558 331.497 68.3223 335.97 70.51C336.314 70.6438 336.612 70.8728 336.83 71.17C336.931 71.3149 336.991 71.4836 337.005 71.6592C337.019 71.8348 336.986 72.011 336.91 72.17C336.68 72.4884 336.38 72.7502 336.034 72.9356C335.687 73.121 335.303 73.2251 334.91 73.24C333.014 73.38 331.11 73.4001 329.21 73.3C326.21 73.2 323.28 73.11 320.63 73.94C319.802 74.1543 319.087 74.6765 318.63 75.4C318.571 75.525 318.54 75.6616 318.54 75.8C318.54 75.9384 318.571 76.0751 318.63 76.2C319.085 76.8642 319.763 77.3433 320.54 77.55C323.347 78.4832 326.242 79.1266 329.18 79.47C331.704 79.7838 334.201 80.2852 336.65 80.97C340.462 82.1304 343.939 84.1879 346.79 86.97C347.14 87.33 348.21 88.4 347.79 89.47C347.37 90.54 345.9 90.79 343.79 90.21C338.23 88.64 332.59 87.13 327.02 85.71C326.345 85.4664 325.606 85.4664 324.93 85.71C324.886 85.7333 324.848 85.7676 324.82 85.8095C324.792 85.8515 324.775 85.8998 324.77 85.95C324.792 86.2146 324.901 86.4645 325.08 86.66C325.924 87.7371 326.937 88.6694 328.08 89.42C331.544 91.6771 335.23 93.5736 339.08 95.08C341.46 96.08 343.93 97.18 346.25 98.42C348.206 99.3083 349.921 100.653 351.25 102.34C352.38 104.02 352.64 106.47 350.93 107.89C348.93 109.53 345.39 108.76 343.23 107.1C341.823 105.921 340.6 104.539 339.6 103C339.19 102.43 338.78 101.86 338.34 101.31C335.809 98.1941 332.55 95.7489 328.85 94.19C326.942 93.2305 324.784 92.8814 322.67 93.19C322.247 93.2477 321.852 93.4365 321.54 93.73C321.05 94.29 321.44 95.24 321.85 95.94C323.94 99.53 327.68 102.18 330.7 104.09C331.82 104.8 332.95 105.47 334.09 106.15C336.629 107.585 339.071 109.185 341.4 110.94C343.4 112.5 344.2 113.94 343.84 115.28C343.569 115.943 343.092 116.502 342.481 116.877C341.869 117.251 341.155 117.42 340.44 117.36C339.006 117.3 337.608 116.888 336.37 116.16C332.74 114.26 329.95 111.38 327.25 108.6C326.74 108.07 326.25 107.6 325.71 107.03C322.82 104.13 318.89 100.67 314.05 99.68C313.786 99.6002 313.504 99.6002 313.24 99.68C313.14 99.74 313.08 99.87 313.06 100.09C312.88 101.51 313.86 102.97 314.94 104.33C317.574 107.639 320.554 110.656 323.83 113.33L324.48 113.86C325.834 114.86 327.063 116.018 328.14 117.31C329.53 119.13 329.92 121.12 329.21 122.65C329.122 122.877 328.988 123.083 328.816 123.256C328.644 123.428 328.437 123.562 328.21 123.65C328.003 123.712 327.786 123.733 327.57 123.71Z" fill="white"/>
</g>
<path d="M236.42 127.22C260.5 136.5 262.84 143.07 265.23 140.49C267.62 137.91 266.4 126.79 260.8 122.24C255.2 117.69 252.8 119.97 254.32 121.77C246.24 115.89 237.11 115.09 234.32 116C231.53 116.91 234.76 118.9 234.76 118.9C234.76 118.9 217.92 120.08 236.42 127.22Z" fill="#263238"/>
<path d="M310.73 141.68C277.8 141.15 272.44 146.39 270.51 143.06C268.58 139.73 274.29 129.81 282.85 127.7C291.41 125.59 293.52 128.7 290.94 129.7C303.03 127.29 314.49 130.03 317.6 131.96C320.71 133.89 315.96 134.51 315.96 134.51C315.96 134.51 336 142.08 310.73 141.68Z" fill="#263238"/>
<path d="M244.81 92.43C243.49 89.43 243.6 82.83 247.05 82.82C250.5 82.81 246.84 92.72 246.84 92.72C247.49 93.79 246.26 95.77 244.81 92.43Z" fill="#746AFF"/>
<path d="M195.08 157.58C192.17 155.97 188.26 150.71 190.99 148.58C193.72 146.45 196.86 156.58 196.86 156.58C198 157 198.26 159.34 195.08 157.58Z" fill="#746AFF"/>
<path d="M245.28 94.48C242.28 93.14 237.87 88.25 240.4 85.9C242.93 83.55 247 93.31 247 93.31C248.17 93.65 248.61 96 245.28 94.48Z" fill="#746AFF"/>
<path d="M307.54 107.52C312.01 106.3 319.06 100.44 316.05 96.6801C313.04 92.9201 305.45 105.56 305.45 105.56C303.72 105.78 302.63 108.86 307.54 107.52Z" fill="#746AFF"/>
<path opacity="0.1" d="M259.54 208C309.03 215.38 325.81 238.67 322.43 257.88C319.72 273.36 313.1 262.13 313.1 262.13C313.1 262.13 315.1 298.68 293.93 317.13C287.19 322.98 288.47 314.35 288.47 314.35C288.47 314.35 267.63 350.45 242.2 347C205.02 341.92 203.48 303.27 203.48 303.27C203.48 303.27 196.28 314.16 190.38 298.51C183.87 281.27 183.73 258.51 192.08 241.51C180.35 248.64 177.93 195.79 259.54 208Z" fill="white"/>
<path opacity="0.1" d="M261.38 211.57C223.11 204.51 204.95 215.48 202.64 228.63C200.78 239.22 208.45 233.63 208.45 233.63C208.45 233.63 197.84 256.63 208.86 273.52C212.36 278.88 213.57 273.03 213.57 273.03C213.57 273.03 219.89 301.26 239.47 305.09C268.11 310.7 276.19 285.46 276.19 285.46C276.19 285.46 280.92 296.76 288.86 286.46C296.8 276.16 302.57 258.66 302.67 249.28C309.54 256.61 324.49 223.22 261.38 211.57Z" fill="white"/>
<path d="M193.58 198.62C193.35 199.09 193.15 199.17 192.95 199.17H192.36L191.19 199.11H188.82L186.45 199.22C185.65 199.28 184.86 199.38 184.06 199.44C180.805 199.816 177.585 200.452 174.43 201.34C167.678 203.312 161.206 206.138 155.17 209.75C148.689 213.599 142.603 218.077 137 223.12C131.173 228.27 125.784 233.896 120.89 239.94L125.77 225.89L126.51 231.56L127.45 237.05C127.85 238.81 128.21 240.59 128.64 242.3C129.07 244.01 129.5 245.68 130.05 247.21C130.922 250.08 132.081 252.854 133.51 255.49C133.792 256.017 134.102 256.527 134.44 257.02C134.57 257.241 134.721 257.448 134.89 257.64C135.018 257.823 135.159 257.996 135.31 258.16L135.68 258.53C135.79 258.62 135.87 258.61 135.94 258.67C136.01 258.73 135.94 258.62 135.94 258.59C135.958 258.542 135.958 258.488 135.94 258.44C135.88 258.302 135.81 258.168 135.73 258.04L135.39 257.56L135.19 257.31L134.79 256.86L134.33 256.38C137.015 258.937 139.16 262.005 140.639 265.404C142.118 268.804 142.901 272.465 142.942 276.172C142.982 279.879 142.28 283.557 140.876 286.988C139.471 290.419 137.394 293.533 134.766 296.148C132.138 298.763 129.012 300.824 125.574 302.211C122.136 303.598 118.455 304.282 114.748 304.222C111.041 304.163 107.384 303.361 103.992 301.865C100.601 300.369 97.543 298.208 95.0002 295.51L94.4102 294.88L93.8702 294.28L93.4102 293.71C93.1202 293.36 92.7702 292.92 92.5402 292.61C92.1302 292.05 91.7302 291.48 91.3402 290.91C90.9502 290.34 90.7102 289.91 90.4002 289.41C90.0902 288.91 89.7702 288.41 89.5502 287.98C89.0802 287.09 88.5502 286.17 88.1502 285.31L87.0002 282.79C86.6202 281.95 86.3402 281.19 86.0002 280.38C85.6602 279.57 85.3602 278.77 85.1202 278.02C84.6202 276.5 84.0502 274.92 83.6802 273.46C82.1215 267.921 81.0508 262.256 80.4802 256.53C80.1302 253.79 80.0402 251.19 79.8602 248.53C79.6802 245.87 79.7302 243.36 79.6902 240.79C79.6502 238.22 79.8002 235.74 79.9002 233.25L80.3902 225.87L80.6202 222.39C80.8871 218.429 82.5323 214.685 85.2702 211.81C91.599 203.64 98.5965 196.01 106.19 189C113.977 181.853 122.448 175.489 131.48 170C140.948 164.221 151.145 159.731 161.8 156.65C167.367 155.063 173.052 153.926 178.8 153.25C180.26 153.11 181.71 152.94 183.17 152.84C184.63 152.74 186.1 152.66 187.57 152.61C189.04 152.56 190.57 152.61 192 152.61L194.21 152.69H195.32C195.536 152.692 195.747 152.749 195.935 152.855C196.122 152.962 196.279 153.115 196.39 153.3C199.85 158.242 201.923 164.021 202.393 170.036C202.862 176.05 201.712 182.081 199.06 187.5L193.58 198.62Z" fill="#746AFF"/>
<path d="M336.94 178.18C337.062 178.041 337.22 177.938 337.396 177.884C337.573 177.829 337.761 177.824 337.94 177.87L338.84 178.1L340.65 178.57L344.27 179.57C346.67 180.29 349.07 181.05 351.45 181.89C356.251 183.572 360.961 185.504 365.56 187.68C374.958 192.103 383.783 197.654 391.84 204.21C400.022 210.894 407.288 218.628 413.45 227.21C419.578 235.778 424.538 245.123 428.2 255L428.49 255.79C430.059 260.06 430.2 264.724 428.89 269.08C428.225 272.197 427.325 275.259 426.2 278.24C425.139 281.001 423.914 283.696 422.53 286.31C421.19 288.82 419.76 291.18 418.27 293.43C416.78 295.68 415.27 297.78 413.64 299.8C410.547 303.716 407.207 307.43 403.64 310.92C401.89 312.63 400.11 314.29 398.25 315.92C397.32 316.73 396.38 317.53 395.38 318.33L393.85 319.56L393.01 320.19C392.66 320.45 392.51 320.58 391.86 321.01C388.742 322.898 385.283 324.153 381.681 324.704C378.078 325.255 374.402 325.091 370.863 324.221C367.324 323.352 363.99 321.794 361.053 319.636C358.116 317.478 355.633 314.763 353.745 311.645C349.932 305.349 348.777 297.796 350.534 290.648C352.29 283.5 356.814 277.343 363.11 273.53C362.87 273.71 363.11 273.59 363.18 273.58C363.25 273.57 363.41 273.5 363.55 273.43L364.4 273.05C365 272.78 365.62 272.46 366.24 272.14C367.48 271.49 368.73 270.79 369.94 270.06C372.291 268.652 374.561 267.113 376.74 265.45C377.74 264.65 378.74 263.86 379.61 263.08C380.48 262.3 381.28 261.53 382 260.8C382.72 260.07 383.3 259.38 383.84 258.8L385.12 257.16L385.81 271.24C383.388 265.165 380.191 259.427 376.3 254.17C372.424 248.933 367.879 244.226 362.78 240.17C357.544 236.014 351.838 232.487 345.78 229.66C342.665 228.199 339.474 226.907 336.22 225.79C334.58 225.21 332.91 224.69 331.22 224.2L328.68 223.49L327.39 223.16L326.75 223C326.53 222.94 326.34 222.8 326.24 222.29L324.86 215.53C323.493 208.791 323.887 201.814 326.003 195.271C328.119 188.729 331.886 182.842 336.94 178.18Z" fill="#746AFF"/>
<path opacity="0.1" d="M191.83 160.84C191.4 162.84 188.28 163.97 184.83 163.25C181.38 162.53 178.99 160.25 179.42 158.25C179.85 156.25 182.97 155.12 186.42 155.84C189.87 156.56 192.26 158.79 191.83 160.84Z" fill="black"/>
<path opacity="0.1" d="M178.17 164.85C178.17 166.21 176.23 167.23 173.96 167.14C171.69 167.05 169.9 165.86 169.96 164.5C170.02 163.14 171.9 162.12 174.17 162.21C176.44 162.3 178.23 163.49 178.17 164.85Z" fill="black"/>
<path opacity="0.1" d="M294.18 94.79C293.48 95.53 291.58 94.86 289.93 93.3C288.28 91.74 287.5 89.88 288.2 89.14C288.9 88.4 290.8 89.08 292.45 90.64C294.1 92.2 294.87 94.06 294.18 94.79Z" fill="black"/>
<path opacity="0.1" d="M267.4 121.57C265.88 122.06 264 120.39 263.19 117.85C262.38 115.31 262.97 112.85 264.49 112.39C266.01 111.93 267.89 113.57 268.7 116.11C269.51 118.65 268.92 121.09 267.4 121.57Z" fill="black"/>
<path opacity="0.1" d="M259.63 114C258.7 114.47 257.32 113.61 256.53 112.07C255.74 110.53 255.85 108.9 256.78 108.43C257.71 107.96 259.08 108.82 259.87 110.36C260.66 111.9 260.55 113.55 259.63 114Z" fill="black"/>
<path opacity="0.1" d="M130.4 257.38C129.21 258.04 127.35 256.97 126.25 254.99C125.15 253.01 125.25 250.86 126.4 250.2C127.55 249.54 129.4 250.6 130.55 252.59C131.7 254.58 131.59 256.72 130.4 257.38Z" fill="black"/>
<path opacity="0.1" d="M121.5 250C120.64 250.14 119.76 249.09 119.5 247.66C119.24 246.23 119.78 244.97 120.64 244.83C121.5 244.69 122.37 245.74 122.64 247.16C122.91 248.58 122.35 249.85 121.5 250Z" fill="black"/>
<path opacity="0.1" d="M108.05 192.05C107.38 191.5 107.59 190.15 108.51 189.05C109.43 187.95 110.73 187.48 111.39 188.05C112.05 188.62 111.85 189.96 110.93 191.05C110.01 192.14 108.72 192.6 108.05 192.05Z" fill="black"/>
<path opacity="0.1" d="M97.9999 288.88C95.7499 289.95 92.4799 287.78 90.6999 284.03C88.9199 280.28 89.2799 276.38 91.5299 275.31C93.7799 274.24 97.0399 276.41 98.8299 280.16C100.62 283.91 100.27 287.81 97.9999 288.88Z" fill="black"/>
<path opacity="0.1" d="M183.17 220.79C181.89 219.26 182.45 216.67 184.43 215.01C186.41 213.35 189.05 213.24 190.34 214.77C191.63 216.3 191.06 218.89 189.09 220.55C187.12 222.21 184.46 222.32 183.17 220.79Z" fill="black"/>
<path opacity="0.1" d="M184 210C183.81 208.81 184.9 207.64 186.44 207.4C187.98 207.16 189.38 207.92 189.57 209.11C189.76 210.3 188.67 211.47 187.13 211.71C185.59 211.95 184.16 211.22 184 210Z" fill="black"/>
<path opacity="0.1" d="M197.3 212.43C196.952 212.352 196.637 212.168 196.4 211.903C196.162 211.638 196.013 211.305 195.973 210.951C195.933 210.597 196.005 210.24 196.179 209.928C196.352 209.617 196.618 209.368 196.94 209.216C197.262 209.063 197.624 209.015 197.974 209.078C198.325 209.141 198.647 209.312 198.896 209.566C199.145 209.821 199.308 210.148 199.362 210.5C199.417 210.852 199.36 211.212 199.2 211.53C199.064 211.899 198.789 212.2 198.434 212.369C198.078 212.537 197.671 212.559 197.3 212.43Z" fill="black"/>
<path opacity="0.1" d="M418.09 278.09C419 279.26 418.54 281.84 417.09 283.85C415.64 285.86 413.72 286.55 412.81 285.38C411.9 284.21 412.36 281.64 413.81 279.63C415.26 277.62 417.19 276.93 418.09 278.09Z" fill="black"/>
<path opacity="0.1" d="M417.31 286.2C417.98 286.82 417.9 288.53 417.13 290.03C416.36 291.53 415.18 292.24 414.51 291.62C413.84 291 413.91 289.29 414.69 287.79C415.47 286.29 416.64 285.58 417.31 286.2Z" fill="black"/>
<path opacity="0.1" d="M148.14 351.61C148.86 352.9 148.04 355.38 146.3 357.16C144.56 358.94 142.56 359.34 141.84 358.05C141.12 356.76 141.94 354.28 143.68 352.5C145.42 350.72 147.41 350.33 148.14 351.61Z" fill="black"/>
<path opacity="0.1" d="M146.18 359.52C146.76 360.23 146.43 361.91 145.44 363.28C144.45 364.65 143.19 365.18 142.61 364.47C142.03 363.76 142.37 362.08 143.35 360.71C144.33 359.34 145.61 358.81 146.18 359.52Z" fill="black"/>
<path opacity="0.1" d="M391 316.63C391 318.05 389 319.8 386.52 320.54C384.04 321.28 381.96 320.73 381.93 319.32C381.9 317.91 383.93 316.15 386.41 315.41C388.89 314.67 390.92 315.22 391 316.63Z" fill="black"/>
<path opacity="0.1" d="M294.7 383.6C296.07 383.97 297.19 386.38 297.2 388.99C297.21 391.6 296.11 393.43 294.74 393.06C293.37 392.69 292.25 390.28 292.24 387.67C292.23 385.06 293.33 383.23 294.7 383.6Z" fill="black"/>
<path opacity="0.1" d="M319.27 225.39C320.88 224.73 323.27 225.99 324.7 228.21C326.13 230.43 325.92 232.77 324.32 233.43C322.72 234.09 320.27 232.83 318.88 230.61C317.49 228.39 317.66 226.05 319.27 225.39Z" fill="black"/>
<path opacity="0.1" d="M287.77 394.78C290.19 394.7 293.46 397.5 295.07 401.04C296.68 404.58 296.07 407.51 293.62 407.6C291.17 407.69 287.93 404.88 286.31 401.34C284.69 397.8 285.35 394.87 287.77 394.78Z" fill="black"/>
<path opacity="0.1" d="M425.31 271C425.71 271.47 425.48 273 424.82 274.38C424.16 275.76 423.3 276.5 422.9 276.03C422.5 275.56 422.74 274.03 423.4 272.65C424.06 271.27 424.92 270.56 425.31 271Z" fill="black"/>
<path opacity="0.1" d="M367.33 193.56C368.46 192.56 371.33 193.06 373.76 194.61C376.19 196.16 377.22 198.22 376.09 199.19C374.96 200.16 372.09 199.7 369.66 198.14C367.23 196.58 366.2 194.54 367.33 193.56Z" fill="black"/>
<path d="M157 332.27L109.3 333.94L108.5 312.15L154.09 253.08L176.91 252.28L179 310.9L190.83 310.49L191.58 331.05L179.76 331.46L180.41 349.29L157.59 350.09L157 332.27ZM156.24 311.71L155.14 281.71L131 312.59L156.24 311.71Z" fill="white"/>
<path d="M157.63 350.59C157.501 350.59 157.376 350.54 157.283 350.451C157.19 350.361 157.135 350.239 157.13 350.11L156.49 332.78L109.3 334.44C109.168 334.443 109.04 334.394 108.943 334.305C108.846 334.215 108.788 334.092 108.78 333.96L107.98 312.17C107.971 312.051 108.007 311.934 108.08 311.84L153.68 252.78C153.724 252.722 153.779 252.675 153.843 252.64C153.907 252.606 153.977 252.585 154.05 252.58L176.87 251.78C177.002 251.777 177.13 251.826 177.227 251.915C177.324 252.005 177.382 252.128 177.39 252.26L179.52 310.39L190.85 309.99C190.915 309.987 190.981 309.998 191.043 310.02C191.104 310.043 191.161 310.078 191.209 310.122C191.258 310.167 191.297 310.22 191.324 310.28C191.352 310.34 191.367 310.404 191.37 310.47L192.12 331.03C192.123 331.096 192.114 331.161 192.091 331.223C192.069 331.285 192.035 331.342 191.99 331.39C191.898 331.486 191.773 331.543 191.64 331.55L180.31 331.95L180.95 349.27C180.953 349.337 180.943 349.403 180.918 349.465C180.894 349.527 180.857 349.583 180.81 349.63C180.768 349.679 180.715 349.719 180.657 349.746C180.598 349.774 180.535 349.789 180.47 349.79L157.65 350.59H157.63ZM157 331.77C157.127 331.772 157.249 331.824 157.34 331.913C157.431 332.002 157.485 332.123 157.49 332.25L158.13 349.58L179.95 348.81L179.32 331.48C179.316 331.414 179.326 331.349 179.348 331.287C179.371 331.225 179.405 331.168 179.45 331.12C179.543 331.026 179.667 330.969 179.8 330.96L191.12 330.57L190.39 311L179.06 311.39C178.994 311.393 178.929 311.382 178.867 311.36C178.805 311.337 178.749 311.302 178.7 311.258C178.652 311.213 178.613 311.16 178.585 311.1C178.558 311.04 178.542 310.976 178.54 310.91L176.41 252.79L154.32 253.57L109 312.31L109.78 333.43L156.98 331.77H157ZM131 313.09C130.907 313.091 130.816 313.066 130.737 313.019C130.657 312.971 130.592 312.902 130.55 312.82C130.506 312.736 130.488 312.642 130.497 312.548C130.505 312.454 130.541 312.364 130.6 312.29L154.71 281.38C154.773 281.301 154.86 281.242 154.957 281.213C155.054 281.184 155.158 281.185 155.255 281.217C155.352 281.248 155.437 281.309 155.498 281.39C155.56 281.471 155.595 281.568 155.6 281.67L156.7 311.67C156.703 311.736 156.694 311.801 156.671 311.863C156.649 311.925 156.615 311.982 156.57 312.03C156.475 312.122 156.351 312.179 156.22 312.19L131.02 313.07L131 313.09ZM154.65 283.09L132.05 312.09L155.68 311.25L154.65 283.09Z" fill="#746AFF"/>
<path d="M198.68 300.51C198.013 282.383 200.773 269.583 206.96 262.11C213.146 254.637 222.826 250.667 236 250.2C242.34 249.98 247.576 250.59 251.71 252.03C255.469 253.256 258.937 255.24 261.9 257.86C264.406 260.119 266.554 262.745 268.27 265.65C269.974 268.698 271.291 271.946 272.19 275.32C274.236 282.539 275.395 289.981 275.64 297.48C276.306 314.78 273.88 327.547 268.36 335.78C262.84 344.013 253.023 348.377 238.91 348.87C230.976 349.137 224.523 348.08 219.55 345.7C214.512 343.268 210.219 339.528 207.12 334.87C204.713 331.443 202.766 326.7 201.28 320.64C199.735 314.035 198.863 307.291 198.68 300.51ZM224.68 299.66C225.126 311.807 226.49 320.067 228.77 324.44C231.05 328.813 234.206 330.927 238.24 330.78C239.522 330.749 240.786 330.462 241.956 329.935C243.125 329.407 244.177 328.651 245.05 327.71C246.93 325.75 248.263 322.717 249.05 318.61C249.836 314.503 250.063 308.133 249.73 299.5C249.27 286.833 247.896 278.357 245.61 274.07C243.323 269.783 240.063 267.717 235.83 267.87C231.496 268.017 228.45 270.35 226.69 274.87C224.93 279.39 224.25 287.653 224.65 299.66H224.68Z" fill="white"/>
<path d="M236.53 349.41C229.64 349.41 223.88 348.32 219.36 346.15C214.248 343.67 209.889 339.873 206.73 335.15C204.31 331.69 202.32 326.85 200.83 320.76C199.263 314.124 198.375 307.346 198.18 300.53C197.51 282.35 200.34 269.32 206.57 261.79C212.8 254.26 222.73 250.17 236 249.7C242.37 249.49 247.72 250.11 251.89 251.56C255.715 252.807 259.245 254.825 262.26 257.49C264.802 259.784 266.98 262.451 268.72 265.4C270.447 268.485 271.79 271.769 272.72 275.18C274.764 282.441 275.925 289.921 276.18 297.46C276.82 314.79 274.34 327.78 268.82 336.06C263.3 344.34 253.2 348.86 239 349.37C238.14 349.39 237.33 349.41 236.53 349.41ZM199.18 300.49C199.376 307.228 200.254 313.929 201.8 320.49C203.27 326.49 205.2 331.19 207.56 334.55C210.616 339.134 214.842 342.818 219.8 345.22C224.68 347.56 231.12 348.62 238.92 348.34C252.83 347.85 262.6 343.52 267.97 335.47C273.34 327.42 275.8 314.58 275.18 297.47C274.92 290.025 273.765 282.639 271.74 275.47C270.85 272.134 269.546 268.923 267.86 265.91C266.178 263.045 264.063 260.458 261.59 258.24C258.681 255.669 255.279 253.719 251.59 252.51C247.59 251.1 242.32 250.51 236.07 250.71C223.07 251.17 213.42 255.11 207.36 262.43C201.3 269.75 198.52 282.57 199.18 300.49ZM237.84 331.29C233.84 331.29 230.6 329.06 228.3 324.67C226 320.28 224.6 311.84 224.15 299.67C223.71 287.67 224.39 279.23 226.15 274.67C227.91 270.11 231.21 267.51 235.74 267.35C240.27 267.19 243.62 269.35 245.98 273.82C248.34 278.29 249.7 286.82 250.16 299.46C250.48 308.09 250.24 314.56 249.47 318.68C248.7 322.8 247.3 326.02 245.36 328.03C244.444 329.018 243.339 329.813 242.111 330.368C240.883 330.922 239.557 331.226 238.21 331.26L237.84 331.29ZM225.15 299.64C225.59 311.64 226.95 319.92 229.15 324.2C231.35 328.48 234.29 330.42 238.15 330.28C239.367 330.247 240.565 329.972 241.674 329.471C242.783 328.97 243.781 328.252 244.61 327.36C246.41 325.49 247.71 322.51 248.46 318.52C249.21 314.53 249.46 308.07 249.13 299.52C248.67 286.99 247.31 278.52 245.07 274.31C242.83 270.1 239.82 268.23 235.75 268.37C231.68 268.51 228.75 270.7 227.05 275.05C225.35 279.4 224.66 287.75 225.1 299.64H225.15Z" fill="#746AFF"/>
<path d="M215.86 254.66L222.36 259.18C222.392 259.204 222.418 259.236 222.436 259.273C222.453 259.309 222.461 259.35 222.46 259.39L222.04 263.72V263.63L224.55 265.63L221.91 263.77C221.904 263.756 221.9 263.741 221.9 263.725C221.9 263.71 221.904 263.694 221.91 263.68L222.05 259.33L222.16 259.55L215.38 255.45L215.86 254.66Z" fill="#746AFF"/>
<path d="M220.32 258.13L218.39 260.83H218.34L215.61 262.26L218.12 260.47L218.05 260.54L219.48 257.54L220.32 258.13Z" fill="#746AFF"/>
<path d="M245.12 327.72L248.91 332.27V332.32C248.931 332.351 248.947 332.385 248.96 332.42L250.21 337.79L248.21 332.65L248.31 332.8L243.85 329L245.12 327.72Z" fill="#746AFF"/>
<path d="M246.89 330.3L254.42 328.83L247.15 331.27L246.89 330.3Z" fill="#746AFF"/>
<path d="M332.59 326.1L284.9 327.77L284.1 306L329.69 246.93L352.51 246.13L354.66 304.75L366.49 304.34L367.24 324.9L355.41 325.31L356.07 343.14L333.25 343.94L332.59 326.1ZM331.84 305.54L330.74 275.54L306.64 306.44L331.84 305.54Z" fill="white"/>
<path d="M333.25 344.42C333.121 344.42 332.997 344.37 332.903 344.281C332.81 344.191 332.755 344.069 332.75 343.94L332.11 326.61L284.91 328.27C284.845 328.273 284.78 328.262 284.719 328.24C284.658 328.217 284.602 328.182 284.554 328.137C284.507 328.093 284.468 328.039 284.442 327.979C284.416 327.92 284.401 327.855 284.4 327.79L283.6 305.99C283.593 305.875 283.628 305.761 283.7 305.67L329.29 246.61C329.335 246.551 329.392 246.503 329.458 246.468C329.524 246.434 329.596 246.414 329.67 246.41L352.49 245.61C352.556 245.607 352.621 245.618 352.683 245.64C352.745 245.663 352.801 245.698 352.85 245.742C352.898 245.787 352.937 245.84 352.964 245.9C352.992 245.96 353.007 246.024 353.01 246.09L355.14 304.22L366.47 303.82C366.536 303.817 366.601 303.828 366.663 303.85C366.725 303.873 366.781 303.908 366.83 303.952C366.878 303.997 366.917 304.05 366.944 304.11C366.972 304.17 366.987 304.234 366.99 304.3L367.74 324.86C367.744 324.926 367.734 324.991 367.712 325.053C367.689 325.115 367.655 325.172 367.61 325.22C367.518 325.316 367.393 325.373 367.26 325.38L355.93 325.78L356.57 343.1C356.571 343.234 356.521 343.362 356.43 343.46C356.387 343.51 356.333 343.551 356.273 343.578C356.212 343.606 356.146 343.62 356.08 343.62L333.26 344.42H333.25ZM332.59 325.6C332.719 325.6 332.843 325.65 332.937 325.739C333.03 325.829 333.085 325.951 333.09 326.08L333.73 343.41L355.55 342.64L354.91 325.31C354.907 325.176 354.957 325.047 355.049 324.95C355.14 324.853 355.266 324.795 355.4 324.79L366.72 324.4L366 304.83L354.67 305.23C354.604 305.233 354.539 305.222 354.477 305.2C354.415 305.177 354.359 305.142 354.311 305.098C354.262 305.053 354.223 305 354.196 304.94C354.168 304.88 354.153 304.816 354.15 304.75L352 246.63L329.91 247.4L284.6 306.14L285.38 327.25L332.58 325.6H332.59ZM306.64 306.92C306.545 306.922 306.452 306.896 306.372 306.847C306.291 306.797 306.226 306.726 306.184 306.641C306.142 306.557 306.125 306.462 306.135 306.368C306.145 306.274 306.181 306.184 306.24 306.11L330.34 275.21C330.403 275.128 330.49 275.068 330.588 275.038C330.687 275.008 330.792 275.008 330.89 275.04C330.987 275.073 331.073 275.135 331.135 275.217C331.197 275.299 331.234 275.397 331.24 275.5L332.34 305.5C332.343 305.632 332.297 305.76 332.21 305.86C332.114 305.95 331.991 306.007 331.86 306.02L306.65 306.9L306.64 306.92ZM330.29 276.92L307.69 305.92L331.32 305.09L330.29 276.92Z" fill="#746AFF"/>
<path d="M330.57 276.84L336.57 273.92L336.39 274.28L335.53 268.54C335.521 268.497 335.525 268.453 335.541 268.412C335.557 268.371 335.584 268.336 335.62 268.31L343.1 263.09L343.05 263.18L342.66 255.84L343.26 263.17C343.271 263.199 343.271 263.231 343.26 263.26L335.95 268.71L336.05 268.47L337.1 274.18C337.11 274.247 337.099 274.316 337.069 274.377C337.038 274.438 336.99 274.488 336.93 274.52L331 277.73L330.57 276.84Z" fill="#746AFF"/>
<path d="M108.89 333.62L116.58 324.62C116.616 324.577 116.663 324.544 116.715 324.525C116.768 324.506 116.825 324.501 116.88 324.51L122.42 325.38H122.27L128.37 321.98V322.04L131.06 312.57L128.57 322.1C128.566 322.113 128.56 322.125 128.551 322.135C128.543 322.145 128.532 322.154 128.52 322.16L122.52 325.8C122.472 325.82 122.418 325.82 122.37 325.8L116.81 325.12L117.11 325L109.68 334.21L108.89 333.62Z" fill="#746AFF"/>
<path d="M131.5 312.72L128.66 322.16V321.96L131.66 326.55H131.57L139.07 326.65L131.57 326.76C131.552 326.759 131.535 326.754 131.519 326.745C131.504 326.736 131.49 326.724 131.48 326.71L128.29 322.27C128.276 322.24 128.269 322.208 128.269 322.175C128.269 322.142 128.276 322.11 128.29 322.08L130.64 312.51L131.5 312.72Z" fill="#746AFF"/>
<path d="M337.55 267.28L335.67 264.48H335.72L333.02 263.59L335.78 264.28L338.25 266.55L337.55 267.28Z" fill="#746AFF"/>
<path d="M131.29 263.63C133.29 259.07 147.22 263.32 150.29 268.97C145.52 269.44 138.78 273.6 133.46 272.25C130.39 271.48 129.92 266.84 131.29 263.63Z" fill="#263238"/>
<path d="M128.09 270.75C131.65 266.47 145.33 275.53 146.81 282.59C141.53 281.59 132.94 283.89 127.64 280.72C124.6 278.91 125.58 273.77 128.09 270.75Z" fill="#263238"/>
<path d="M123.46 281.44C128.39 278.84 137.57 292.44 136.23 299.54C131.74 296.54 122.92 295.43 119.23 290.48C117.11 287.64 120 283.27 123.46 281.44Z" fill="#263238"/>
<path d="M114 290.6C118.39 290.91 118.89 303.86 115 308.07C113.22 304.21 107.77 299.77 107.36 294.91C107.12 292.12 110.87 290.38 114 290.6Z" fill="#263238"/>
<path d="M367 279.46C367 274.46 352.48 272.92 347.44 276.92C351.64 279.23 356.21 285.69 361.64 286.54C364.78 287 367 283 367 279.46Z" fill="#263238"/>
<path d="M366 290.94C363.85 285.8 348.12 290.44 344.63 296.76C349.98 297.33 357.5 302.07 363.5 300.6C366.93 299.76 367.5 294.56 366 290.94Z" fill="#263238"/>
<path d="M367.24 298.91C363.73 294.59 349.95 303.5 348.39 310.55C353.69 309.55 362.25 311.99 367.58 308.88C370.65 307.1 369.72 302 367.24 298.91Z" fill="#263238"/>
<path d="M373.29 315.24C370.78 311.63 360.52 316.67 357.77 322C362 321.55 368.6 325.25 372.98 323.12C375.5 321.89 375.07 317.78 373.29 315.24Z" fill="#263238"/>
</svg>
