<svg width="600" height="355" viewBox="0 0 600 355" fill="none" xmlns="http://www.w3.org/2000/svg">
<g clip-path="url(#clip0_256_286)">
<path d="M187.208 209.513V19.3859C187.208 9.37475 195.343 1.23016 205.342 1.23016H581.866C591.865 1.23016 600 9.37475 600 19.3859V209.513C600 219.524 591.865 227.67 581.866 227.67H205.342C195.343 227.67 187.208 219.524 187.208 209.513ZM598.161 19.3859C598.161 10.3755 590.866 3.07113 581.866 3.07113H205.342C196.342 3.07113 189.046 10.3757 189.046 19.3864V209.513C189.046 218.524 196.342 225.829 205.342 225.829H461.448C536.953 225.829 598.161 164.545 598.161 88.9479L598.161 19.3859Z" fill="#E6E6E6"/>
<path d="M319.859 35.8136H108.835C102.578 35.8136 97.4896 40.9079 97.4896 47.1727V124.787C97.4896 131.052 102.578 136.146 108.835 136.146H319.859C326.116 136.146 331.204 131.052 331.204 124.787V47.1727C331.204 40.9079 326.116 35.8136 319.859 35.8136Z" fill="white"/>
<path d="M319.859 35.8136H108.835C102.578 35.8136 97.4896 40.9079 97.4896 47.1727V124.787C97.4896 131.052 102.578 136.146 108.835 136.146H319.859C326.116 136.146 331.204 131.052 331.204 124.787V47.1727C331.204 40.9079 326.116 35.8136 319.859 35.8136ZM330.011 124.787C330.011 130.395 325.46 134.952 319.859 134.952H108.835C103.234 134.952 98.6826 130.395 98.6826 124.787V47.1727C98.6826 41.5648 103.234 37.008 108.835 37.008H319.859C325.46 37.008 330.011 41.5648 330.011 47.1727V124.787Z" fill="#3F3D56"/>
<path d="M118.715 71.187H306.265C308.042 71.187 309.482 72.6294 309.482 74.4087C309.482 76.188 308.042 77.6304 306.265 77.6304H118.715C116.938 77.6304 115.498 76.188 115.498 74.4087C115.498 72.6294 116.938 71.187 118.715 71.187Z" fill="#6C63FF"/>
<path d="M118.715 92.3582H186.748C188.525 92.3582 189.966 93.8006 189.966 95.5799C189.966 97.3592 188.525 98.8016 186.748 98.8016H118.715C116.938 98.8016 115.498 97.3592 115.498 95.5799C115.498 93.8006 116.938 92.3582 118.715 92.3582Z" fill="#6C63FF"/>
<path d="M528.247 61.3443H399.536C397.509 61.3443 395.859 59.6926 395.859 57.6624C395.859 55.6322 397.509 53.9805 399.536 53.9805H528.247C530.274 53.9805 531.924 55.6322 531.924 57.6624C531.924 59.6926 530.274 61.3443 528.247 61.3443Z" fill="#E6E6E6"/>
<path d="M552.647 141.195H373.297V140.274C432.35 149.342 492.193 148.596 552.647 140.274V141.195Z" fill="#E6E6E6"/>
<path d="M528.247 108.289H399.536C397.509 108.289 395.859 106.637 395.859 104.607C395.859 102.577 397.509 100.925 399.536 100.925H528.247C530.274 100.925 531.924 102.577 531.924 104.607C531.924 106.637 530.274 108.289 528.247 108.289Z" fill="#E6E6E6"/>
<path d="M553.566 153.161H374.217V154.081H553.566V153.161Z" fill="#E6E6E6"/>
<path d="M528.247 84.0738H399.536C397.509 84.0738 395.859 82.4221 395.859 80.3919C395.859 78.3617 397.509 76.71 399.536 76.71H528.247C530.274 76.71 531.924 78.3617 531.924 80.3919C531.924 82.4221 530.274 84.0738 528.247 84.0738Z" fill="#E6E6E6"/>
<path d="M553.566 166.048C491.659 161.832 431.538 161.16 374.217 166.048V165.127H553.566V166.048Z" fill="#E6E6E6"/>
<path d="M306.048 151.069L298.482 147.48C301.585 151.816 304.259 158.589 305.691 163.977C308.115 158.958 312.022 152.816 315.89 149.147L307.893 151.206C312.821 127.027 331.355 109.669 352.578 109.669V107.828C330.41 107.828 311.079 125.913 306.048 151.069Z" fill="#3F3D56"/>
<path d="M340.873 187.91H293.066C291.038 187.91 289.389 186.258 289.389 184.228C289.389 182.198 291.038 180.546 293.066 180.546H340.873C342.901 180.546 344.55 182.198 344.55 184.228C344.55 186.258 342.901 187.91 340.873 187.91Z" fill="#6C63FF"/>
<path d="M218.466 108.006C225.574 108.006 231.337 102.237 231.337 95.1196C231.337 88.0025 225.574 82.2328 218.466 82.2328C211.357 82.2328 205.595 88.0025 205.595 95.1196C205.595 102.237 211.357 108.006 218.466 108.006Z" fill="#6C63FF"/>
<path d="M225.161 87.5737C224.547 87.2145 223.611 87.4008 223.274 88.0691C221.744 91.1035 220.214 94.138 218.684 97.1725C217.45 95.2368 215.871 93.5466 214.04 92.13C213.45 91.6737 212.495 92.0401 212.153 92.6253C211.736 93.3385 212.056 94.057 212.648 94.5144C214.783 96.1663 216.43 98.3866 217.539 100.837C217.961 101.769 219.481 101.71 219.921 100.837C221.832 97.0456 223.744 93.2542 225.655 89.4628C225.991 88.7974 225.831 87.9663 225.161 87.5737Z" fill="white"/>
<path d="M372.918 70.2666C380.027 70.2666 385.789 64.497 385.789 57.3798C385.789 50.2626 380.027 44.493 372.918 44.493C365.81 44.493 360.047 50.2626 360.047 57.3798C360.047 64.497 365.81 70.2666 372.918 70.2666Z" fill="#6C63FF"/>
<path d="M379.613 49.8338C379 49.4747 378.063 49.6609 377.726 50.3292C376.196 53.3636 374.666 56.3981 373.137 59.4326C371.902 57.4969 370.324 55.8067 368.492 54.3901C367.902 53.9338 366.947 54.3002 366.605 54.8854C366.189 55.5987 366.509 56.3171 367.1 56.7745C369.236 58.4264 370.883 60.6467 371.992 63.0972C372.413 64.0287 373.933 63.9699 374.373 63.0972C376.285 59.3057 378.196 55.5144 380.108 51.723C380.443 51.0575 380.283 50.2264 379.613 49.8338Z" fill="white"/>
<path d="M557.709 91.4377C564.818 91.4377 570.58 85.6681 570.58 78.5509C570.58 71.4337 564.818 65.6641 557.709 65.6641C550.601 65.6641 544.838 71.4337 544.838 78.5509C544.838 85.6681 550.601 91.4377 557.709 91.4377Z" fill="#6C63FF"/>
<path d="M564.404 71.0049C563.791 70.6457 562.854 70.832 562.517 71.5003C560.987 74.5347 559.458 77.5692 557.928 80.6037C556.694 78.668 555.115 76.9778 553.283 75.5612C552.693 75.1049 551.738 75.4713 551.397 76.0565C550.98 76.7697 551.3 77.4882 551.891 77.9456C554.027 79.5975 555.674 81.8178 556.783 84.2683C557.204 85.1998 558.724 85.141 559.164 84.2683C561.076 80.4768 562.987 76.6854 564.899 72.894C565.234 72.2286 565.075 71.3975 564.404 71.0049Z" fill="white"/>
<path d="M269.229 159.168H238.227C236.302 159.168 234.736 157.6 234.736 155.672C230.637 143.677 230.718 131.923 234.736 120.397C234.736 118.469 236.302 116.902 238.227 116.902H269.229C271.154 116.902 272.72 118.469 272.72 120.397V155.672C272.72 157.6 271.154 159.168 269.229 159.168Z" fill="#E6E6E6"/>
<path d="M244.87 117.943C239.848 117.943 235.776 122.019 235.776 127.047V154.924C235.776 156.692 237.208 158.126 238.975 158.126H256.119C264.713 158.126 271.68 151.151 271.68 142.546V121.145C271.68 119.377 270.248 117.943 268.482 117.943H244.87Z" fill="white"/>
<path d="M260.948 128.194H246.433C246.068 128.194 245.77 127.896 245.77 127.53C245.77 127.163 246.068 126.865 246.433 126.865H260.948C261.314 126.865 261.612 127.163 261.612 127.53C261.612 127.896 261.314 128.194 260.948 128.194Z" fill="#E6E6E6"/>
<path d="M260.948 142.363H246.433C246.068 142.363 245.77 142.065 245.77 141.698C245.77 141.332 246.068 141.034 246.433 141.034H260.948C261.314 141.034 261.612 141.332 261.612 141.698C261.612 142.065 261.314 142.363 260.948 142.363Z" fill="#E6E6E6"/>
<path d="M268.737 135.283H238.645C238.279 135.283 237.981 134.985 237.981 134.619C237.981 134.252 238.279 133.954 238.645 133.954H268.737C269.103 133.954 269.401 134.252 269.401 134.619C269.401 134.985 269.103 135.283 268.737 135.283Z" fill="#E6E6E6"/>
<path d="M269.092 148.124H256.535C256.169 148.124 255.872 147.826 255.872 147.459C255.872 147.093 256.169 146.795 256.535 146.795H269.092C269.458 146.795 269.755 147.093 269.755 147.459C269.755 147.826 269.458 148.124 269.092 148.124Z" fill="#E6E6E6"/>
<path d="M55.6366 62.6583C56.4532 58.8877 56.6931 61.6654 58.4693 58.2452C57.2501 62.6648 59.4998 61.2176 62.4882 64.6831C83.4892 67.98 84.8125 60.7784 92.5845 60.9991L92.6243 60.9988C94.3344 60.9711 95.2129 58.9208 94.182 57.5544C91.6363 54.1805 88.83 48.9744 91.4858 45.6969C96.1909 39.8905 92.0446 27.9835 90.0166 30.5578C90.0166 20.6284 77.8037 14.1169 73.0662 15.7302C64.3124 18.7113 56.2057 22.7318 55.2238 31.7279C55.0705 33.1327 54.8722 34.5292 54.6202 35.9196C54.1084 38.7431 52.0002 39.4929 52.7257 42.2659L54.9944 44.5765C56.0591 48.6458 55.7228 52.9179 54.2642 56.8629C53.4579 59.0436 53.3462 60.9133 55.6366 62.6583Z" fill="#2F2E41"/>
<path d="M77.5003 49.3346C84.7705 49.3346 90.6642 43.4337 90.6642 36.1546C90.6642 28.8755 84.7705 22.9746 77.5003 22.9746C70.2301 22.9746 64.3364 28.8755 64.3364 36.1546C64.3364 43.4337 70.2301 49.3346 77.5003 49.3346Z" fill="#FFB8B8"/>
<path d="M56.9941 336.619L63.7733 336.779L67.5522 306.285L57.5478 306.048L56.9941 336.619Z" fill="#A0616A"/>
<path d="M80.2527 350.779C80.2527 351.926 79.4399 352.856 78.4374 352.856H64.9813C64.9813 352.856 63.6571 347.526 58.2581 345.233L57.8855 352.856H50.944L51.785 340.598C51.785 340.598 49.9281 334.04 53.7845 330.688C57.6409 327.336 54.5174 327.803 54.5174 327.803L56.0344 320.216L66.5238 321.451L66.6009 333.36L71.6914 345.181L79.1578 348.874C79.8224 349.202 80.2527 349.951 80.2527 350.779Z" fill="#2F2E41"/>
<path d="M64.4497 308.953L69.8344 313.08L90.8247 290.663L82.8787 284.573L64.4497 308.953Z" fill="#A0616A"/>
<path d="M74.9178 334.112C74.2433 335.038 73.0397 335.31 72.2295 334.719L61.3544 326.785C61.3544 326.785 63.4189 321.697 60.4046 316.66L55.6196 322.601L50.0095 318.508L57.899 309.098C57.899 309.098 60.2555 302.703 65.344 302.268C70.4324 301.832 67.6335 300.368 67.6335 300.368L73.3219 295.131L81.0729 302.314L74.1305 311.984L71.2916 324.539L75.1538 331.926C75.4976 332.584 75.4048 333.443 74.9178 334.112Z" fill="#2F2E41"/>
<path d="M45.0512 180.699C45.46 182.377 44.7071 190.186 45.128 192.873C46.1984 199.705 55.9778 236.952 54.2908 247.57C48.1095 286.475 56.6585 311.434 56.6585 311.434H70.4489L77.8038 193.612L84.982 203.086L99.0278 245.089L74.1813 289.816L87.1549 300.544L125.891 238.879L98.3651 135.726L96.7022 129.498L59.5113 128.459L61.5806 131.564L56.8731 136.221C56.8731 136.221 56.8668 136.233 56.8418 136.258C56.1166 137.272 39.9999 159.975 45.0512 180.699Z" fill="#2F2E41"/>
<path d="M56.8418 136.258C61.1492 137.798 90.2568 136.208 98.3651 135.726L96.7022 129.498L59.5113 128.459L61.5806 131.564L56.8731 136.221C56.8731 136.221 56.8668 136.233 56.8418 136.258Z" fill="#FFB7B7"/>
<path d="M104.981 86.381L103.641 93.4978L103.316 95.2048L96.191 109.847L97.1274 131.314C97.727 133.826 72.4271 128.125 59.2841 134.014L49.0536 85.0262L59.4271 62.4474L67.5455 57.9317L68.8986 52.5128H86.0962C87.0121 56.8073 86.0192 58.9233 84.2394 60.1412L88.5474 71.6442L104.981 86.381Z" fill="#6C63FF"/>
<path d="M118.432 44.403C118.219 46.2461 117.608 47.8881 116.764 49.1261L115.844 66.8115L107.452 66.1269L109.289 48.2606C108.749 46.8624 108.528 45.124 108.741 43.281C109.228 39.0707 111.791 35.9087 114.467 36.2185C117.143 36.5284 118.918 40.1927 118.432 44.403Z" fill="#FFB7B7"/>
<path d="M84.9831 62.9887L86.078 65.6641C86.078 65.6641 70.0809 64.0595 70.4225 72.4222C70.7139 79.5573 100.825 107.835 102.264 108.495C106.525 110.45 111.478 107.819 112.249 103.189C119.029 85.6752 120.434 69.8849 117.336 55.5388H108.143L105.149 66.8561L104.98 75.4648L100.133 85.8188L84.2393 65.6642L84.9831 62.9887Z" fill="#6C63FF"/>
<path d="M31.6852 161.291C32.2763 159.488 32.4116 157.7 32.1574 156.188L38.872 139.366L30.7836 136.401L24.8431 153.785C23.7434 154.852 22.7946 156.372 22.2035 158.175C20.8531 162.295 21.881 166.332 24.4994 167.192C27.1177 168.053 30.3349 165.41 31.6852 161.291Z" fill="#FFB7B7"/>
<path d="M70.4171 62.9979C70.4171 62.9979 60.4857 59.2274 54.8477 63.8347C52.5226 65.7347 42.2398 78.8271 40.6559 96.4528C40.5317 97.8342 39.5918 99.0227 39.0623 100.315C35.7967 108.282 30.1749 111.952 27.7844 118.767C26.8503 121.43 28.5637 128.317 27.9734 130.614C24.8827 142.644 25.998 149.503 25.998 149.503L34.3443 152.285L38.8719 149.081L46.3084 121.892L70.4171 62.9979Z" fill="#6C63FF"/>
<path d="M145.116 42.2659H114.113C112.189 42.2659 110.623 40.6981 110.623 38.7709C106.524 26.7754 106.605 15.0215 110.623 3.49505C110.623 1.56784 112.189 0 114.113 0H145.116C147.04 0 148.606 1.56784 148.606 3.49505V38.7709C148.606 40.6981 147.04 42.2659 145.116 42.2659Z" fill="#E6E6E6"/>
<path d="M120.756 1.04132C115.734 1.04132 111.663 5.11746 111.663 10.1456V38.0224C111.663 39.7909 113.095 41.2245 114.861 41.2245H132.005C140.599 41.2245 147.566 34.2491 147.566 25.6444V4.24345C147.566 2.47497 146.134 1.04132 144.368 1.04132H120.756Z" fill="white"/>
<path d="M136.835 11.2926H122.32C121.954 11.2926 121.656 10.9945 121.656 10.6282C121.656 10.2618 121.954 9.96381 122.32 9.96381H136.835C137.201 9.96381 137.498 10.2618 137.498 10.6282C137.498 10.9945 137.201 11.2926 136.835 11.2926Z" fill="#E6E6E6"/>
<path d="M136.835 25.4612H122.32C121.954 25.4612 121.656 25.1631 121.656 24.7967C121.656 24.4304 121.954 24.1324 122.32 24.1324H136.835C137.201 24.1324 137.498 24.4304 137.498 24.7967C137.498 25.1631 137.201 25.4612 136.835 25.4612Z" fill="#E6E6E6"/>
<path d="M144.623 18.3816H114.531C114.165 18.3816 113.867 18.0835 113.867 17.7171C113.867 17.3507 114.165 17.0527 114.531 17.0527H144.623C144.989 17.0527 145.287 17.3507 145.287 17.7171C145.287 18.0835 144.989 18.3816 144.623 18.3816Z" fill="#E6E6E6"/>
<path d="M144.978 31.2222H132.422C132.056 31.2222 131.758 30.9241 131.758 30.5577C131.758 30.1913 132.056 29.8934 132.422 29.8934H144.978C145.344 29.8934 145.642 30.1913 145.642 30.5577C145.642 30.9241 145.344 31.2222 144.978 31.2222Z" fill="#E6E6E6"/>
<path d="M1.26049 342.066C2.92589 342.169 3.8463 340.106 2.58632 338.903L2.46096 338.406C2.47747 338.367 2.49406 338.327 2.51077 338.287C4.19495 334.282 9.90288 334.31 11.5727 338.321C13.0549 341.881 14.9419 345.447 15.4065 349.211C15.6148 350.872 15.5211 352.565 15.1514 354.195C18.6242 346.63 20.4518 338.369 20.4518 330.061C20.4518 327.974 20.3372 325.886 20.1029 323.804C19.9103 322.101 19.6447 320.408 19.3011 318.731C17.4423 309.665 13.4175 301.031 7.61214 293.818C4.82135 292.297 2.494 289.919 1.0882 287.068C0.583163 286.04 0.18744 284.934 0 283.808C0.317597 283.849 1.19755 279.025 0.958013 278.729C1.40062 278.06 2.19282 277.727 2.67622 277.073C5.08035 273.823 8.39263 274.39 10.1218 278.807C13.8156 280.666 13.8514 283.75 11.5849 286.715C10.1429 288.602 9.94475 291.155 8.67952 293.175C8.80972 293.341 8.94509 293.502 9.07525 293.668C11.4622 296.721 13.5267 300.003 15.2671 303.45C14.7753 299.619 15.5015 295.003 16.7395 292.027C18.1487 288.637 20.7902 285.781 23.1163 282.85C25.9103 279.33 31.6397 280.866 32.132 285.329C32.1368 285.372 32.1414 285.415 32.146 285.459C31.8004 285.653 31.462 285.86 31.1313 286.078C29.2454 287.321 29.8972 290.237 32.1318 290.581L32.1824 290.589C32.0574 291.83 31.8439 293.06 31.5316 294.27C34.5157 305.779 28.0732 309.97 18.8742 310.159C18.6711 310.263 18.4732 310.366 18.2702 310.465C19.2022 313.082 19.9468 315.767 20.4986 318.487C20.9933 320.891 21.337 323.321 21.5296 325.762C21.7691 328.841 21.7483 331.936 21.4879 335.009L21.5035 334.9C22.1648 331.515 24.0079 328.353 26.6842 326.162C30.671 322.896 36.3035 321.693 40.6046 319.068C42.675 317.804 45.328 319.437 44.9667 321.831L44.9491 321.945C44.3087 322.205 43.6839 322.506 43.0799 322.844C42.7344 323.038 42.3959 323.245 42.0653 323.463C40.1794 324.707 40.8312 327.622 43.0658 327.966L43.1164 327.974C43.1528 327.979 43.1841 327.984 43.2205 327.989C42.1219 330.591 40.5912 333.005 38.6751 335.087C36.8092 345.134 28.7952 346.087 20.2227 343.161H20.2175C19.2803 347.232 17.9109 351.21 16.1511 355H1.62454C1.57243 354.839 1.52559 354.673 1.47872 354.512C2.82205 354.595 4.17577 354.517 5.49829 354.273C4.42049 352.954 3.34273 351.625 2.26494 350.306C2.23891 350.28 2.21805 350.254 2.19725 350.228C1.65055 349.553 1.09864 348.883 0.551948 348.208L0.551653 348.208C0.517433 346.135 0.766968 344.07 1.26049 342.066Z" fill="#F2F2F2"/>
<path d="M81.0687 20.5604H78.3888C70.5485 20.5692 57.1474 31.6723 62.3329 39.4601C57.9049 51.2857 57.7436 57.4385 59.6232 60.6588C60.3151 61.8442 61.689 62.3842 63.0569 62.2881C63.2393 62.2753 63.4229 62.2713 63.6079 62.2775C64.9332 62.3213 66.7108 68.5588 67.9444 69.0384L71.2189 68.0418L76.5901 62.6681L73.8647 54.4722L68.5911 50.341L69.3096 40.7738C65.7798 32.6513 69.62 32.2537 71.781 29.6336L71.9996 38.0395L75.0947 35.0489C77.6157 35.1144 80.5618 36.2086 82.5203 33.9325C86.078 29.7652 89.7661 34.7967 93.9681 35.8136L95.2716 34.7805C95.3162 32.437 94.97 30.1742 94.2978 28.148C93.9815 27.1942 93.1728 26.4082 93.1388 25.4601C93.0113 21.902 86.2948 18.4508 81.0687 20.5604Z" fill="#2F2E41"/>
<path d="M550.429 96.6823C552.316 96.7733 553.359 94.9678 551.931 93.9155L551.789 93.4807C551.808 93.4459 551.827 93.4111 551.846 93.3763C553.754 89.872 560.223 89.8962 562.116 93.4057C563.796 96.5206 565.934 99.6408 566.461 102.934C566.697 104.388 566.591 105.869 566.172 107.296C570.107 100.676 572.179 93.4478 572.179 86.1785C572.179 84.352 572.049 82.5256 571.783 80.7037C571.565 79.2135 571.264 77.7324 570.875 76.2649C568.768 68.3323 564.207 60.7768 557.627 54.4661C554.464 53.1349 551.827 51.0541 550.233 48.5598C549.661 47.6602 549.212 46.6925 549 45.7066C549.36 45.743 550.357 41.5222 550.086 41.2632C550.587 40.6772 551.485 40.3858 552.033 39.8139C554.758 36.9697 558.512 37.4663 560.471 41.3314C564.658 42.9582 564.698 45.6561 562.13 48.2509C560.495 49.9017 560.271 52.1354 558.837 53.9027C558.984 54.0481 559.138 54.189 559.285 54.3344C561.991 57.0059 564.33 59.8774 566.303 62.894C565.745 59.5414 566.568 55.5023 567.971 52.8987C569.569 49.9321 572.562 47.4337 575.198 44.8691C578.365 41.7886 584.858 43.133 585.416 47.038C585.422 47.0758 585.427 47.1135 585.432 47.1513C585.041 47.3214 584.657 47.5021 584.282 47.6929C582.145 48.7813 582.883 51.3323 585.416 51.6333L585.473 51.6401C585.332 52.726 585.09 53.8028 584.736 54.8614C588.118 64.9314 580.816 68.5992 570.391 68.7639C570.161 68.8548 569.936 68.9456 569.706 69.032C570.762 71.3218 571.606 73.6707 572.232 76.0514C572.792 78.1549 573.182 80.2812 573.4 82.4166C573.672 85.1107 573.648 87.8186 573.353 90.5082L573.371 90.4128C574.12 87.4506 576.209 84.6837 579.242 82.7664C583.76 79.9087 590.144 78.8563 595.019 76.5592C597.365 75.4535 600.372 76.8824 599.962 78.977L599.942 79.0773C599.217 79.3044 598.508 79.5679 597.824 79.8632C597.432 80.0334 597.049 80.214 596.674 80.4048C594.537 81.4932 595.275 84.0443 597.808 84.3453L597.865 84.352C597.907 84.3566 597.942 84.3611 597.983 84.3657C596.738 86.6419 595.003 88.7545 592.832 90.5764C590.717 99.3672 581.635 100.201 571.919 97.6413H571.913C570.851 101.203 569.299 104.683 567.305 108H550.841C550.782 107.859 550.729 107.714 550.676 107.573C552.198 107.646 553.733 107.577 555.231 107.364C554.01 106.21 552.788 105.047 551.567 103.893C551.537 103.87 551.514 103.847 551.49 103.825C550.871 103.234 550.245 102.648 549.626 102.057L549.625 102.057C549.586 100.244 549.869 98.4361 550.429 96.6823Z" fill="#F2F2F2"/>
</g>
<defs>
<clipPath id="clip0_256_286">
<rect width="600" height="355" fill="white"/>
</clipPath>
</defs>
</svg>
